<svg width="269" height="85" viewBox="0 0 269 85" fill="none" xmlns="http://www.w3.org/2000/svg">
<path d="M268.677 9.18083C268.215 9.42007 267.723 10.0389 267.231 9.64018C266.395 8.96391 265.469 9.04366 264.581 9.14893C261.426 9.52534 258.307 9.14893 255.178 8.86183C250.357 8.4248 245.532 7.90803 240.689 7.89207C232.633 7.86337 224.577 7.96545 216.522 8.0101C215.047 8.01968 213.572 8.0101 212.096 8.0101C212.259 8.25573 212.429 8.33229 212.607 8.37695C215.35 9.05642 218.08 9.7646 220.778 10.6004C228.565 13.0152 236.366 15.4108 243.521 19.4302C249.048 22.5372 254.147 26.1738 257.652 31.6319C260.22 35.6289 261.136 40.0055 260.047 44.5991C259 49.0108 256.002 52.271 252.47 54.8485C247.371 58.5712 241.656 61.2603 235.816 63.6177C227.327 67.0469 218.53 69.5479 209.673 71.8415C201.008 74.084 192.269 76.0203 183.504 77.8163C172.693 80.0333 161.783 81.6506 150.819 82.9107C142.176 83.9059 133.497 84.3844 124.81 84.6907C112.325 85.1309 99.8413 85.0639 87.3571 84.6715C73.9534 84.2473 60.5369 84.0686 47.1811 82.6937C36.9065 81.6347 26.7691 79.8419 17.018 76.3393C11.4879 74.352 6.31229 71.7553 2.34355 67.1522C-0.217141 64.1791 -0.571551 61.0051 0.756687 57.5089C2.08492 54.0191 4.4253 51.1991 7.05624 48.6312C10.728 45.0489 14.9778 42.213 19.3297 39.5462C31.0124 32.3847 43.4295 26.8469 56.5331 22.8403C64.5408 20.3904 72.6443 18.3073 80.7894 16.3806C88.1553 14.6389 95.5437 12.9737 103.005 11.7105C113.564 9.9209 124.145 8.23022 134.791 7.00208C135.333 6.93828 135.873 6.82663 136.412 6.7373C136.106 6.52358 135.831 6.52358 135.554 6.52358C119.503 6.49168 103.468 7.0276 87.4529 8.05796C76.5333 8.75975 65.6232 9.58276 54.7099 10.3165C46.3223 10.8811 37.9314 11.4425 29.5149 11.0597C26.9032 10.9417 24.2914 10.8109 21.4657 10.6737C21.9127 10.2335 22.2511 10.2303 22.5545 10.1729C26.1177 9.5062 29.681 8.81717 33.2538 8.20469C39.8343 7.07864 46.45 6.17906 53.0912 5.49322C61.0031 4.67658 68.9055 3.75787 76.843 3.19324C84.0716 2.67647 91.2939 2.03529 98.529 1.57275C105.793 1.10701 113.066 0.752914 120.336 0.411591C130.049 -0.0413895 139.765 -0.168983 149.484 0.258476C159.066 0.67955 168.635 1.27927 178.179 2.23945C180.857 2.5074 183.504 3.07203 186.215 3.0146C191.665 2.90295 197.115 2.74665 202.569 2.69561C207.023 2.65414 211.48 2.72113 215.938 2.78493C220.65 2.85192 225.382 2.87744 230.056 3.49948C239.064 4.69891 248.125 5.28268 257.164 6.13759C259.268 6.33537 261.404 6.39598 263.448 6.99889C264.926 7.43272 266.372 7.96226 267.924 8.08028C268.342 8.11218 268.776 8.18237 268.962 8.64172C269.07 8.90649 268.866 9.07875 268.671 9.18083H268.677ZM198.271 12.0837C191.997 10.897 185.695 9.89538 179.347 9.20316C176.818 8.92563 174.283 9.27334 171.751 9.36266C161.4 9.87305 151.087 10.8907 140.8 12.0901C129.873 13.3629 118.976 14.8813 108.108 16.5911C99.1676 17.9979 90.2978 19.746 81.4567 21.66C73.6182 23.3539 65.8084 25.1849 58.1199 27.4657C47.2801 30.6812 36.6766 34.5124 26.6765 39.8556C22.3054 42.1907 18.1291 44.8702 14.4797 48.2197C11.4273 51.0173 8.97515 54.3221 8.08753 58.5169C7.45535 61.5091 8.38447 63.9239 10.8174 65.7933C13.8666 68.1347 17.3628 69.5702 20.9453 70.8239C29.3138 73.7554 37.9729 75.36 46.7597 76.3553C57.6697 77.5898 68.6277 77.9024 79.592 78.148C87.8616 78.3362 96.1311 78.5914 104.401 78.7477C111.004 78.8753 117.606 78.735 124.209 78.5723C130.911 78.4064 137.61 78.1193 144.293 77.5898C151.582 77.0124 158.849 76.2245 166.081 75.1303C172.77 74.1159 179.475 73.1749 186.129 71.9531C193.195 70.6548 200.222 69.1587 207.215 67.5127C212.365 66.3005 217.489 64.9862 222.563 63.4933C230.382 61.1933 238.15 58.702 245.28 54.6666C249.447 52.3092 252.359 48.7524 253.24 43.9611C254.185 38.8157 252.327 34.4901 248.527 31.0098C244.044 26.9011 238.76 24.1067 233.16 21.845C221.892 17.2961 210.181 14.3422 198.271 12.0869V12.0837Z" fill="#A7A7A7"/>
</svg>
