<svg width="72" height="70" viewBox="0 0 72 70" fill="none" xmlns="http://www.w3.org/2000/svg">
<path d="M52.8842 43.0586L62.3632 33.68C65.9044 30.1388 72.7123 34.6053 69.0339 38.9331L57.5558 52.4358C57.1059 52.9649 56.5909 53.4332 56.0207 53.8293C54.1702 55.0121 51.966 55.4054 49.7957 55.4054H32.7632C31.5309 55.4054 30.3 55.4761 29.0763 55.619L24.1783 56.1694L14.0173 46.3098C14.0173 46.3098 19.7811 35.4245 31.0881 38.5539C33.2032 39.1397 35.3918 39.4184 37.5862 39.4184H48.7799C54.05 39.4184 54.091 47.791 48.736 47.791H38.991" stroke="#A7A7A7" stroke-width="2" stroke-linecap="round" stroke-linejoin="round"/>
<path d="M17.5034 69L27.1692 59.0824C27.1692 59.0824 27.172 59.0753 27.1692 59.0725L10.7662 43.1548C10.7662 43.1548 10.7592 43.1519 10.7563 43.1548L1 53.286L17.5034 69Z" stroke="#A7A7A7" stroke-width="2" stroke-linecap="round" stroke-linejoin="round"/>
<path d="M33.2004 47.7358L33.2146 47.7938" stroke="#A7A7A7" stroke-width="2" stroke-linecap="round" stroke-linejoin="round"/>
<path d="M12.5997 13.5704C9.53531 13.8604 7.13867 16.441 7.13867 19.5804V26.0091C7.13867 27.1197 8.03847 28.0195 9.14907 28.0195H22.9347C24.0453 28.0195 24.9451 27.1197 24.9451 26.0091V19.5804C24.9451 16.4381 22.5442 13.8562 19.477 13.569" stroke="#A7A7A7" stroke-width="2" stroke-linecap="round" stroke-linejoin="round"/>
<path d="M22.7877 7.74567C22.7877 11.4708 19.7672 14.4913 16.0421 14.4913C12.3169 14.4913 9.29639 11.4708 9.29639 7.74567C9.29639 4.02056 12.3155 1 16.0406 1C19.7658 1 22.7863 4.02056 22.7863 7.74567H22.7877Z" stroke="#A7A7A7" stroke-width="2" stroke-linecap="round" stroke-linejoin="round"/>
<path d="M30.4062 13.5704C27.3418 13.8604 24.9452 16.441 24.9452 19.5804V26.0091C24.9452 27.1197 25.845 28.0195 26.9556 28.0195H40.7412C41.8518 28.0195 42.7516 27.1197 42.7516 26.0091V19.5804C42.7516 16.4381 40.3507 13.8562 37.2835 13.569" stroke="#A7A7A7" stroke-width="2" stroke-linecap="round" stroke-linejoin="round"/>
<path d="M40.5939 7.74567C40.5939 11.4708 37.5733 14.4913 33.8482 14.4913C30.1231 14.4913 27.1025 11.4708 27.1025 7.74567C27.1025 4.02056 30.1217 1 33.8482 1C37.5747 1 40.5939 4.02056 40.5939 7.74567Z" stroke="#A7A7A7" stroke-width="2" stroke-linecap="round" stroke-linejoin="round"/>
<path d="M48.2126 13.5704C45.1482 13.8604 42.7516 16.441 42.7516 19.5804V26.0091C42.7516 27.1197 43.6514 28.0195 44.762 28.0195H58.5476C59.6582 28.0195 60.558 27.1197 60.558 26.0091V19.5804C60.558 16.4381 58.1571 13.8562 55.0899 13.569" stroke="#A7A7A7" stroke-width="2" stroke-linecap="round" stroke-linejoin="round"/>
<path d="M58.4004 7.74567C58.4004 11.4708 55.3798 14.4913 51.6547 14.4913C47.9296 14.4913 44.9091 11.4708 44.9091 7.74567C44.9091 4.02056 47.9296 1 51.6547 1C55.3798 1 58.4004 4.02056 58.4004 7.74567Z" stroke="#A7A7A7" stroke-width="2" stroke-linecap="round" stroke-linejoin="round"/>
</svg>
