<svg width="63" height="70" viewBox="0 0 63 70" fill="none" xmlns="http://www.w3.org/2000/svg">
<path d="M48.4816 58.7887L41.4949 54.7056" stroke="#A7A7A7" stroke-width="2" stroke-linecap="round" stroke-linejoin="round"/>
<path d="M44.1342 61.8833L38.9865 58.8748" stroke="#A7A7A7" stroke-width="2" stroke-linecap="round" stroke-linejoin="round"/>
<path d="M38.8648 64.4385L36.847 63.2593" stroke="#A7A7A7" stroke-width="2" stroke-linecap="round" stroke-linejoin="round"/>
<path d="M8.41687 19.8425H42.4066" stroke="#A7A7A7" stroke-width="2" stroke-linecap="round" stroke-linejoin="round"/>
<path d="M8.41687 12.6986H25.4112" stroke="#A7A7A7" stroke-width="2" stroke-linecap="round" stroke-linejoin="round"/>
<path d="M8.41687 26.1722H42.4066" stroke="#A7A7A7" stroke-width="2" stroke-linecap="round" stroke-linejoin="round"/>
<path d="M37.9614 1.28809V8.47501C37.9614 10.8078 39.8783 12.6986 42.2433 12.6986H49.5294" stroke="#A7A7A7" stroke-width="2" stroke-linecap="round" stroke-linejoin="round"/>
<path d="M49.8226 31.5626V14.0244C49.8226 13.1754 49.4806 12.3623 48.8724 11.7614L38.9127 1.9372C38.3045 1.33735 37.4791 1 36.6184 1H5.2816C2.91666 1 0.999756 2.89081 0.999756 5.22356V59.6295C0.999756 61.9623 2.91666 63.8531 5.2816 63.8531H16.1593" stroke="#A7A7A7" stroke-width="2" stroke-linecap="round" stroke-linejoin="round"/>
<path d="M21.9983 37.0105L19.8465 35.7534C19.255 35.4078 18.4899 35.6006 18.1396 36.184L9.2931 50.9137C8.94278 51.4982 9.13821 52.2518 9.72971 52.5974L11.8815 53.8545C13.3244 54.6984 15.1883 54.2278 16.0428 52.8035L23.0628 41.1151C23.9183 39.6909 23.4412 37.8534 21.9973 37.0105H21.9983Z" stroke="#A7A7A7" stroke-width="2" stroke-linecap="round" stroke-linejoin="round"/>
<path d="M51.7062 47.3259L54.9964 52.8045C55.8519 54.2277 57.7148 54.6984 59.1576 53.8555L61.3095 52.5984C61.901 52.2528 62.0974 51.4992 61.7461 50.9147L52.8996 36.1851C52.5493 35.6016 51.7842 35.4078 51.1927 35.7544L49.0409 37.0115C47.598 37.8554 47.1209 39.6929 47.9754 41.1161L49.2166 43.1823" stroke="#A7A7A7" stroke-width="2" stroke-linecap="round" stroke-linejoin="round"/>
<path d="M35.4126 41.8698L35.0581 41.6627C33.0175 40.5071 32.0621 40.2938 30.2211 40.9962L28.2138 41.7621C26.9923 42.2277 25.6222 42.1159 24.4954 41.4576L23.2542 40.7357" stroke="#A7A7A7" stroke-width="2" stroke-linecap="round" stroke-linejoin="round"/>
<path d="M15.5647 53.4044L17.6448 54.6153" stroke="#A7A7A7" stroke-width="2" stroke-linecap="round" stroke-linejoin="round"/>
<path d="M33.0299 66.6647L36.3595 68.6109C37.5269 69.2938 39.0343 68.9123 39.7266 67.7608C40.4189 66.6093 40.0322 65.1225 38.8648 64.4396L41.6289 66.0546C42.7963 66.7365 44.3047 66.3561 44.996 65.2045C45.6873 64.053 45.3016 62.5662 44.1342 61.8833L45.9773 62.96C47.1447 63.6419 48.652 63.2614 49.3444 62.1099C50.0357 60.9584 49.65 59.4716 48.4826 58.7887L50.7374 60.1063C51.9048 60.7882 53.4121 60.4078 54.1044 59.2563C54.7957 58.1048 54.41 56.618 53.2426 55.9351" stroke="#A7A7A7" stroke-width="2" stroke-linecap="round" stroke-linejoin="round"/>
<path d="M48.0803 41.2895L47.7913 41.4556C46.6645 42.1139 45.2944 42.2267 44.0729 41.7601L41.8099 40.8834C41.1019 40.6096 40.3244 40.5604 39.5873 40.745L36.1194 41.6104C34.505 42.0134 33.374 43.4459 33.374 45.0885V49.6546C33.374 50.3006 33.9042 50.8256 34.5591 50.8256C36.5332 50.8266 38.133 49.2485 38.133 47.3023V47.1085L52.9776 55.7792C53.2531 55.49 53.568 55.2409 53.9142 55.0378L56.0172 53.8258" stroke="#A7A7A7" stroke-width="2" stroke-linecap="round" stroke-linejoin="round"/>
<path d="M19.9941 59.6418C19.203 60.7287 17.6676 60.9779 16.5657 60.1976C15.4638 59.4173 15.2112 57.9028 16.0023 56.8159L17.3942 54.9035C18.1853 53.8166 19.7207 53.5674 20.8226 54.3478C21.9245 55.1281 22.1771 56.6426 21.386 57.7295" stroke="#A7A7A7" stroke-width="2" stroke-linecap="round" stroke-linejoin="round"/>
<path d="M26.9132 58.4462L23.9859 62.4688C23.1948 63.5557 21.6594 63.8049 20.5575 63.0246C19.4556 62.2443 19.203 60.7298 19.9941 59.6428L22.9214 55.6203C23.7125 54.5334 25.2479 54.2842 26.3498 55.0655C27.4517 55.8458 27.7043 57.3603 26.9132 58.4472V58.4462Z" stroke="#A7A7A7" stroke-width="2" stroke-linecap="round" stroke-linejoin="round"/>
<path d="M26.9133 58.4462C27.7044 57.3593 29.2397 57.1101 30.3417 57.8904C31.4436 58.6707 31.6962 60.1852 30.9051 61.2721L27.9777 65.2947C27.1867 66.3816 25.6513 66.6308 24.5494 65.8495C23.4475 65.0691 23.1948 63.5546 23.987 62.4677" stroke="#A7A7A7" stroke-width="2" stroke-linecap="round" stroke-linejoin="round"/>
<path d="M29.6046 63.0594C30.3957 61.9725 31.9311 61.7233 33.033 62.5036C34.1349 63.284 34.3875 64.7984 33.5964 65.8854L32.6224 67.2235C31.8313 68.3104 30.2959 68.5596 29.194 67.7792C28.0921 66.9989 27.8395 65.4844 28.6316 64.3975" stroke="#A7A7A7" stroke-width="2" stroke-linecap="round" stroke-linejoin="round"/>
</svg>
