<svg width="87" height="70" viewBox="0 0 87 70" fill="none" xmlns="http://www.w3.org/2000/svg">
<path d="M42.3757 13.0465L16.8708 32.4014H69.945L44.4402 13.0465C43.8297 12.5832 42.9875 12.5832 42.377 13.0465H42.3757Z" stroke="#A7A7A7" stroke-width="2" stroke-linecap="round" stroke-linejoin="round"/>
<path d="M16.7007 32.4001H2.70612C1.76411 32.4001 1 31.636 1 30.694V28.9879C1 28.0458 1.76411 27.2817 2.70612 27.2817H23.5265" stroke="#A7A7A7" stroke-width="2" stroke-linecap="round" stroke-linejoin="round"/>
<path d="M72.2488 27.2805H63.8014" stroke="#A7A7A7" stroke-width="2" stroke-linecap="round" stroke-linejoin="round"/>
<path d="M70.2292 32.4001H84.1086C85.0506 32.4001 85.8147 31.636 85.8147 30.694V28.9879C85.8147 28.0458 85.0506 27.2817 84.1086 27.2817H78.221" stroke="#A7A7A7" stroke-width="2" stroke-linecap="round" stroke-linejoin="round"/>
<path d="M53.6466 63.2895V60.2177C53.6466 59.2757 54.4107 58.5116 55.3527 58.5116H62.1785C63.1205 58.5116 63.8846 59.2757 63.8846 60.2177V63.4316" stroke="#A7A7A7" stroke-width="2" stroke-linecap="round" stroke-linejoin="round"/>
<path d="M63.886 32.8276V35.8136C63.886 36.7556 63.1219 37.5197 62.1798 37.5197H55.3541C54.4121 37.5197 53.6479 36.7556 53.6479 35.8136V32.9978" stroke="#A7A7A7" stroke-width="2" stroke-linecap="round" stroke-linejoin="round"/>
<path d="M56.2064 58.2339V37.9473" stroke="#A7A7A7" stroke-width="2" stroke-linecap="round" stroke-linejoin="round"/>
<path d="M61.3262 37.9473V58.2339" stroke="#A7A7A7" stroke-width="2" stroke-linecap="round" stroke-linejoin="round"/>
<path d="M38.2877 63.3458V60.2177C38.2877 59.2757 39.0518 58.5116 39.9938 58.5116H46.8196C47.7616 58.5116 48.5257 59.2757 48.5257 60.2177V63.4316" stroke="#A7A7A7" stroke-width="2" stroke-linecap="round" stroke-linejoin="round"/>
<path d="M48.527 32.9338V35.8136C48.527 36.7556 47.7629 37.5197 46.8208 37.5197H39.9951C39.0531 37.5197 38.2889 36.7556 38.2889 35.8136V32.8276" stroke="#A7A7A7" stroke-width="2" stroke-linecap="round" stroke-linejoin="round"/>
<path d="M40.8475 58.2339V37.9473" stroke="#A7A7A7" stroke-width="2" stroke-linecap="round" stroke-linejoin="round"/>
<path d="M45.9673 37.9473V58.2339" stroke="#A7A7A7" stroke-width="2" stroke-linecap="round" stroke-linejoin="round"/>
<path d="M22.9288 63.2038V60.2177C22.9288 59.2757 23.6929 58.5116 24.635 58.5116H31.4607C32.4027 58.5116 33.1669 59.2757 33.1669 60.2177V63.3471" stroke="#A7A7A7" stroke-width="2" stroke-linecap="round" stroke-linejoin="round"/>
<path d="M33.1681 32.8276V35.8136C33.1681 36.7556 32.404 37.5197 31.462 37.5197H24.6362C23.6942 37.5197 22.9301 36.7556 22.9301 35.8136V32.8276" stroke="#A7A7A7" stroke-width="2" stroke-linecap="round" stroke-linejoin="round"/>
<path d="M25.4886 58.2338V37.8333" stroke="#A7A7A7" stroke-width="2" stroke-linecap="round" stroke-linejoin="round"/>
<path d="M30.6082 37.8615V58.2339" stroke="#A7A7A7" stroke-width="2" stroke-linecap="round" stroke-linejoin="round"/>
<path d="M18.577 68.4937V65.3361C18.577 64.3941 19.3411 63.63 20.2832 63.63H66.5302C67.4723 63.63 68.2364 64.3941 68.2364 65.3361V68.4655" stroke="#A7A7A7" stroke-width="2" stroke-linecap="round" stroke-linejoin="round"/>
<path d="M3.55981 61.0701V67.0435C3.55981 67.9855 4.32392 68.7496 5.26594 68.7496H81.5488C82.4908 68.7496 83.2549 67.9855 83.2549 67.0435V32.8276" stroke="#A7A7A7" stroke-width="2" stroke-linecap="round" stroke-linejoin="round"/>
<path d="M3.55981 32.4858V55.0981" stroke="#A7A7A7" stroke-width="2" stroke-linecap="round" stroke-linejoin="round"/>
<path d="M13.7992 61.0702H9.53327C9.06226 61.0702 8.67957 60.6875 8.67957 60.2165V52.7072C8.67957 52.2362 9.06226 51.8535 9.53327 51.8535H13.7992C14.2702 51.8535 14.6529 52.2362 14.6529 52.7072V60.2165C14.6529 60.6875 14.2702 61.0702 13.7992 61.0702Z" stroke="#A7A7A7" stroke-width="2" stroke-linecap="round" stroke-linejoin="round"/>
<path d="M13.7992 46.7351H9.53327C9.06226 46.7351 8.67957 46.3525 8.67957 45.8814V38.3722C8.67957 37.9012 9.06226 37.5185 9.53327 37.5185H13.7992C14.2702 37.5185 14.6529 37.9012 14.6529 38.3722V45.8814C14.6529 46.3525 14.2702 46.7351 13.7992 46.7351Z" stroke="#A7A7A7" stroke-width="2" stroke-linecap="round" stroke-linejoin="round"/>
<path d="M73.0169 61.0702H77.2829C77.7539 61.0702 78.1366 60.6875 78.1366 60.2165V52.7072C78.1366 52.2362 77.7539 51.8535 77.2829 51.8535H73.0169C72.5459 51.8535 72.1632 52.2362 72.1632 52.7072V60.2165C72.1632 60.6875 72.5459 61.0702 73.0169 61.0702Z" stroke="#A7A7A7" stroke-width="2" stroke-linecap="round" stroke-linejoin="round"/>
<path d="M73.0169 46.7351H77.2829C77.7539 46.7351 78.1366 46.3525 78.1366 45.8814V38.3722C78.1366 37.9012 77.7539 37.5185 77.2829 37.5185H73.0169C72.5459 37.5185 72.1632 37.9012 72.1632 38.3722V45.8814C72.1632 46.3525 72.5459 46.7351 73.0169 46.7351Z" stroke="#A7A7A7" stroke-width="2" stroke-linecap="round" stroke-linejoin="round"/>
<path d="M83.1039 26.94L81.8355 20.9539C81.6679 20.1655 80.9729 19.601 80.1665 19.601H53.3063" stroke="#A7A7A7" stroke-width="2" stroke-linecap="round" stroke-linejoin="round"/>
<path d="M33.5521 19.601H6.6547C5.84579 19.601 5.14824 20.1693 4.98441 20.9603L3.76978 26.8082" stroke="#A7A7A7" stroke-width="2" stroke-linecap="round" stroke-linejoin="round"/>
<path d="M43.4073 12.5192V2.45013" stroke="#A7A7A7" stroke-width="2" stroke-linecap="round" stroke-linejoin="round"/>
<path d="M51.9405 6.97335H43.4073V1.8537C43.4073 1.38269 43.79 1 44.2611 1H51.9405C52.4115 1 52.7942 1.38269 52.7942 1.8537V6.11965C52.7942 6.59066 52.4115 6.97335 51.9405 6.97335Z" stroke="#A7A7A7" stroke-width="2" stroke-linecap="round" stroke-linejoin="round"/>
</svg>
