<svg width="11" height="9" viewBox="0 0 11 9" fill="none" xmlns="http://www.w3.org/2000/svg">
<path d="M10.5934 4.48142H0.335813C0.1502 4.48142 0 4.33122 0 4.14561C0 3.96 0.1502 3.8098 0.335813 3.8098H10.5934C10.779 3.8098 10.9292 3.96 10.9292 4.14561C10.9292 4.33122 10.779 4.48142 10.5934 4.48142Z" fill="#002C65"/>
<path d="M6.88261 8.14484C6.79591 8.14484 6.70921 8.11156 6.64357 8.04501C6.51322 7.91313 6.51474 7.70034 6.64663 7.56999L10.1153 4.14561L6.64663 0.72123C6.51474 0.590874 6.51322 0.378396 6.64357 0.246207C6.77393 0.114324 6.98641 0.112798 7.1186 0.243155L10.8293 3.90657C10.8931 3.96976 10.9292 4.05586 10.9292 4.14561C10.9292 4.23536 10.8931 4.32145 10.8293 4.38465L7.1186 8.04806C7.05327 8.11278 6.96779 8.14484 6.88261 8.14484Z" fill="#002C65"/>
</svg>
