<svg width="21" height="12" viewBox="0 0 21 12" fill="none" xmlns="http://www.w3.org/2000/svg">
<path id="Vector" fill-rule="evenodd" clip-rule="evenodd" d="M20.632 0.309704C20.8677 0.508265 21 0.777423 21 1.05806C21 1.33869 20.8677 1.60785 20.632 1.80641L8.889 11.6903C8.65308 11.8886 8.3333 12 7.99988 12C7.66646 12 7.34667 11.8886 7.11076 11.6903L0.400451 6.04236C0.276836 5.94541 0.177687 5.8285 0.10892 5.6986C0.0401529 5.56869 0.00317651 5.42846 0.000195811 5.28627C-0.00278488 5.14408 0.0282912 5.00284 0.0915712 4.87098C0.154851 4.73912 0.249038 4.61933 0.368513 4.51877C0.487988 4.41822 0.630303 4.33894 0.786969 4.28568C0.943635 4.23242 1.11144 4.20626 1.28038 4.20877C1.44932 4.21128 1.61592 4.2424 1.77026 4.30028C1.92459 4.35816 2.0635 4.44161 2.17868 4.54566L7.99988 9.44524L18.8538 0.309704C19.0897 0.111391 19.4095 0 19.7429 0C20.0763 0 20.3961 0.111391 20.632 0.309704Z" fill="#61CE70"/>
</svg>
