<svg width="28" height="28" viewBox="0 0 28 28" fill="none" xmlns="http://www.w3.org/2000/svg">
<g id="check">
<path id="Vector" d="M13.7243 27.4487C21.3041 27.4487 27.4487 21.3041 27.4487 13.7243C27.4487 6.1446 21.3041 0 13.7243 0C6.1446 0 0 6.1446 0 13.7243C0 21.3041 6.1446 27.4487 13.7243 27.4487Z" fill="#00BA00"/>
<path id="Vector_2" fill-rule="evenodd" clip-rule="evenodd" d="M9.4389 20.4177L4.41947 15.0455C3.73228 14.31 3.77172 13.1463 4.50722 12.4591C5.24271 11.7719 6.40636 11.8115 7.09355 12.5469L10.9653 16.6908L17.0938 10.9647C17.149 10.9131 17.2066 10.8659 17.2661 10.8225L20.1481 8.12981C20.8836 7.44262 22.0474 7.48217 22.7344 8.21766C23.4216 8.95305 23.3821 10.1168 22.6467 10.804L13.8443 19.0283L13.8349 19.0183L10.79 21.8632L9.4389 20.4177Z" fill="white"/>
</g>
</svg>
