<svg width="40" height="40" viewBox="0 0 40 40" fill="none" xmlns="http://www.w3.org/2000/svg">
<path d="M10.6667 14.6667H9.33334C8.96534 14.6667 8.66667 14.9647 8.66667 15.3334V20.6667C8.66667 21.0354 8.96534 21.3334 9.33334 21.3334H10.6667C11.7693 21.3334 12.6667 20.4361 12.6667 19.3334C12.6667 18.8214 12.4733 18.3541 12.156 18.0001C12.4733 17.6461 12.6667 17.1787 12.6667 16.6667C12.6667 15.5641 11.7693 14.6667 10.6667 14.6667ZM10.6667 20.0001H10V18.6667H10.6667C11.034 18.6667 11.3333 18.9654 11.3333 19.3334C11.3333 19.7014 11.034 20.0001 10.6667 20.0001ZM10.6667 17.3334H10V16.0001H10.6667C11.034 16.0001 11.3333 16.2987 11.3333 16.6667C11.3333 17.0347 11.034 17.3334 10.6667 17.3334Z" fill="white"/>
<path d="M17.3333 16.6667C17.3333 15.5641 16.436 14.6667 15.3333 14.6667H14C13.632 14.6667 13.3333 14.9647 13.3333 15.3334V21.3334H14.6667V18.6667H15.0393C15.6587 19.3747 16 20.2694 16 21.2187V21.3334H17.3333V21.2187C17.3333 20.1707 17.0267 19.1707 16.456 18.3201C16.9847 17.9601 17.3333 17.3534 17.3333 16.6667ZM14.6667 16.0001H15.3333C15.7007 16.0001 16 16.2987 16 16.6667C16 17.0347 15.7007 17.3334 15.3333 17.3334H14.6667V16.0001Z" fill="white"/>
<path d="M20 14.6667C18.8973 14.6667 18 15.5641 18 16.6667V21.3334H19.3333V19.3334H20.6667V21.3334H22V16.6667C22 15.5641 21.1027 14.6667 20 14.6667ZM19.3333 18.0001V16.6667C19.3333 16.2987 19.6327 16.0001 20 16.0001C20.3673 16.0001 20.6667 16.2987 20.6667 16.6667V18.0001H19.3333Z" fill="white"/>
<path d="M25.3333 17.8425L23.93 15.0352C23.7913 14.7585 23.4847 14.6145 23.18 14.6845C22.8793 14.7559 22.6667 15.0245 22.6667 15.3339V21.3339H24V18.1579L25.4033 20.9652C25.518 21.1952 25.7513 21.3339 26 21.3339C26.0507 21.3339 26.102 21.3279 26.1533 21.3165C26.454 21.2452 26.6667 20.9765 26.6667 20.6672V14.6672H25.3333V17.8425Z" fill="white"/>
<path d="M29.3333 14.6667H28C27.632 14.6667 27.3333 14.9647 27.3333 15.3334V20.6667C27.3333 21.0354 27.632 21.3334 28 21.3334H29.3333C30.436 21.3334 31.3333 20.4361 31.3333 19.3334V16.6667C31.3333 15.5641 30.436 14.6667 29.3333 14.6667ZM30 19.3334C30 19.7014 29.7007 20.0001 29.3333 20.0001H28.6667V16.0001H29.3333C29.7007 16.0001 30 16.2987 30 16.6667V19.3334Z" fill="white"/>
<path d="M37.3333 8C37.7013 8 38 7.702 38 7.33333V6H40V4.66667H38V3.33333C38 2.96467 37.7013 2.66667 37.3333 2.66667H36V0H34.6667V2.66667H33.3333C32.9653 2.66667 32.6667 2.96467 32.6667 3.33333V4.66667H7.33333V3.33333C7.33333 2.96467 7.03467 2.66667 6.66667 2.66667H5.33333V0H4V2.66667H2.66667C2.29867 2.66667 2 2.96467 2 3.33333V4.66667H0V6H2V7.33333C2 7.702 2.29867 8 2.66667 8H4V32H2.66667C2.29867 32 2 32.298 2 32.6667V34H0V35.3333H2V36.6667C2 37.0353 2.29867 37.3333 2.66667 37.3333H4V40H5.33333V37.3333H6.66667C7.03467 37.3333 7.33333 37.0353 7.33333 36.6667V35.3333H21.0573L24.1953 38.4713C24.3253 38.6013 24.496 38.6667 24.6667 38.6667C24.8373 38.6667 25.008 38.6013 25.138 38.4713L28.276 35.3333H32.6667V36.6667C32.6667 37.0353 32.9653 37.3333 33.3333 37.3333H34.6667V40H36V37.3333H37.3333C37.7013 37.3333 38 37.0353 38 36.6667V35.3333H40V34H38V32.6667C38 32.298 37.7013 32 37.3333 32H36V8H37.3333ZM34 4H36.6667V6.66667H34V4ZM3.33333 4H6V6.66667H3.33333V4ZM6 36H3.33333V33.3333H6V36ZM19.0573 30C19.844 30 20.5827 29.694 21.1387 29.138C21.6947 28.582 22 27.8433 22 27.0573V26.6667H20.6667V27.0573C20.6667 27.2527 20.628 27.4413 20.5613 27.6187L17.244 24.3013L23.352 25.2413C23.4647 26.9487 24.0793 28.5807 25.1153 29.9413L21.942 33.1147C20.5813 32.0787 18.9487 31.464 17.2413 31.3513L16.302 25.244L19.6187 28.5607C19.4407 28.6267 19.2527 28.666 19.0573 28.666H18.6667V29.9993L19.0573 30ZM24.6667 37.0573L22.276 34.6667L26.6667 30.276L29.0573 32.6667L24.6667 37.0573ZM36.6667 36H34V33.3333H36.6667V36ZM34.6667 32H33.3333C32.9653 32 32.6667 32.298 32.6667 32.6667V34H29.6093L30.4713 33.138C30.732 32.8773 30.732 32.456 30.4713 32.1953L27.138 28.862C26.8773 28.6013 26.456 28.6013 26.1953 28.862L26.0673 28.99C25.1607 27.7367 24.6667 26.2267 24.6667 24.6667C24.6667 24.338 24.4267 24.058 24.1013 24.008L15.4347 22.6747C15.2267 22.6433 15.0127 22.712 14.862 22.862C14.712 23.0127 14.642 23.2247 14.6747 23.4347L16.008 32.1013C16.058 32.426 16.338 32.6667 16.6667 32.6667C18.186 32.6667 19.6553 33.1387 20.8887 34H7.33333V32.6667C7.33333 32.298 7.03467 32 6.66667 32H5.33333V8H6.66667C7.03467 8 7.33333 7.702 7.33333 7.33333V6H32.6667V7.33333C32.6667 7.702 32.9653 8 33.3333 8H34.6667V32Z" fill="white"/>
</svg>
