<svg width="39" height="38" viewBox="0 0 39 38" fill="none" xmlns="http://www.w3.org/2000/svg">
<g id="icone automa&#195;&#167;&#195;&#163;o">
<path id="Vector" d="M10.4438 28.6933L12.4268 30.1338C12.6458 30.2924 12.9187 30.358 13.1859 30.3162C13.4532 30.2744 13.693 30.1286 13.8531 29.9106L14.3435 29.2315C15.1132 29.5826 15.9203 29.8452 16.7493 30.0142V30.8528C16.7498 30.9871 16.7768 31.12 16.8286 31.244C16.8805 31.3679 16.9562 31.4804 17.0516 31.5751C17.1469 31.6697 17.26 31.7447 17.3843 31.7956C17.5086 31.8466 17.6417 31.8726 17.776 31.8721H20.2279C20.4988 31.8718 20.7585 31.764 20.95 31.5725C21.1416 31.3809 21.2493 31.1212 21.2497 30.8503V30.0118C22.0786 29.8427 22.8857 29.5801 23.6555 29.229L24.1459 29.9088C24.3058 30.1273 24.5457 30.2736 24.8132 30.3158C25.0806 30.3581 25.3539 30.2929 25.5735 30.1344L27.5576 28.6927C27.776 28.5328 27.9223 28.293 27.9645 28.0256C28.0066 27.7582 27.9412 27.485 27.7825 27.2657L27.2879 26.586C27.8587 25.962 28.3573 25.2756 28.7743 24.5399L29.5754 24.7998C29.8331 24.883 30.1132 24.8606 30.3545 24.7377C30.5957 24.6148 30.7785 24.4013 30.8626 24.1439L31.6209 21.811C31.7044 21.5534 31.6822 21.2731 31.5592 21.0318C31.4362 20.7904 31.2225 20.6077 30.965 20.5238L30.1682 20.2639C30.2638 19.4236 30.2638 18.5752 30.1682 17.7349L30.965 17.475C31.2228 17.3913 31.4368 17.2087 31.56 16.9674C31.6832 16.726 31.7055 16.4456 31.6221 16.1878L30.8639 13.8585C30.7798 13.6011 30.5971 13.3875 30.3558 13.2646C30.1145 13.1416 29.8343 13.1194 29.5767 13.2027L28.7755 13.4626C28.3586 12.7268 27.86 12.0404 27.2891 11.4165L27.7844 10.7361C27.9429 10.5167 28.0081 10.2434 27.9657 9.97599C27.9234 9.70859 27.7768 9.46885 27.5582 9.30918L25.5753 7.86873C25.3566 7.7107 25.0844 7.64524 24.8177 7.68654C24.5511 7.72785 24.3114 7.87259 24.1508 8.0894L23.6604 8.76855C22.8907 8.4174 22.0836 8.1548 21.2546 7.98581V7.14973C21.2544 7.01518 21.2277 6.88198 21.176 6.75777C21.1243 6.63355 21.0486 6.52075 20.9532 6.42584C20.8578 6.33092 20.7447 6.25575 20.6202 6.20463C20.4957 6.15352 20.3624 6.12745 20.2279 6.12794H17.776C17.5051 6.12826 17.2454 6.23602 17.0539 6.42757C16.8623 6.61913 16.7546 6.87884 16.7542 7.14973V7.98826C15.9253 8.15735 15.1181 8.41994 14.3484 8.771L13.8531 8.0894C13.6933 7.87068 13.4534 7.72415 13.1859 7.68188C12.9184 7.63961 12.645 7.70503 12.4255 7.86383L10.4414 9.3055C10.223 9.46536 10.0767 9.70519 10.0345 9.97257C9.99236 10.24 10.0578 10.5132 10.2164 10.7325L10.7111 11.4122C10.1405 12.0364 9.64188 12.7227 9.22468 13.4583L8.42354 13.1984C8.16587 13.1151 7.88568 13.1373 7.64439 13.2603C7.4031 13.3832 7.2204 13.5968 7.13634 13.8543L6.37811 16.1872C6.29463 16.4448 6.31681 16.7251 6.43978 16.9664C6.56274 17.2078 6.77645 17.3905 7.03397 17.4744L7.83388 17.7343C7.73826 18.5746 7.73826 19.423 7.83388 20.2633L7.03704 20.5232C6.77928 20.6069 6.56529 20.7895 6.44208 21.0308C6.31887 21.2722 6.29652 21.5526 6.37995 21.8104L7.13818 24.1397C7.22237 24.397 7.40509 24.6105 7.64634 24.7334C7.88759 24.8563 8.16771 24.8787 8.42538 24.7955L9.22652 24.5356C9.64341 25.2714 10.142 25.9578 10.7129 26.5817L10.2177 27.2621C10.1385 27.3709 10.0815 27.4942 10.0501 27.625C10.0186 27.7559 10.0132 27.8916 10.0342 28.0246C10.0552 28.1575 10.1022 28.2849 10.1725 28.3997C10.2428 28.5144 10.335 28.6142 10.4438 28.6933ZM10.2201 23.805C10.1058 23.5968 9.92265 23.4347 9.70208 23.3465C9.48151 23.2583 9.23716 23.2494 9.01076 23.3214L8.24272 23.5708L7.61077 21.6272L8.37635 21.3783C8.60261 21.304 8.79594 21.1532 8.92312 20.9519C9.0503 20.7506 9.10339 20.5112 9.07328 20.275C8.96458 19.4299 8.96458 18.5744 9.07328 17.7294C9.10334 17.4933 9.05038 17.2541 8.92345 17.0528C8.79652 16.8515 8.60354 16.7007 8.37757 16.626L7.61077 16.3772L8.24272 14.4335L9.00892 14.6824C9.23587 14.7553 9.48116 14.7469 9.70257 14.6585C9.92398 14.5701 10.1076 14.4073 10.222 14.1981C10.6314 13.4499 11.1342 12.7566 11.7182 12.1349C11.8813 11.9617 11.9791 11.7371 11.9948 11.4997C12.0104 11.2622 11.943 11.0267 11.804 10.8336L11.3296 10.1808L12.9846 8.98002L13.4584 9.63282C13.5993 9.82524 13.8031 9.96234 14.0345 10.0204C14.2658 10.0785 14.5102 10.0539 14.7253 9.95094C15.4947 9.58623 16.3075 9.32153 17.1441 9.1633C17.3786 9.12012 17.5907 8.99632 17.7436 8.8133C17.8965 8.63029 17.9806 8.39959 17.9814 8.16111V7.35385H20.025V8.15866C20.0257 8.39714 20.1099 8.62784 20.2628 8.81085C20.4157 8.99386 20.6277 9.11767 20.8623 9.16084C21.6988 9.31908 22.5117 9.58378 23.281 9.94849C23.4962 10.0515 23.7407 10.0761 23.9722 10.018C24.2036 9.95996 24.4075 9.82283 24.5486 9.63037L25.0218 8.97757L26.6768 10.1784L26.2017 10.8324C26.0629 11.0257 25.9957 11.2613 26.0117 11.4988C26.0277 11.7363 26.1259 11.9607 26.2894 12.1337C26.8732 12.7544 27.3759 13.4466 27.7856 14.1938C27.8998 14.4027 28.0832 14.5652 28.3042 14.6537C28.5251 14.7422 28.77 14.751 28.9968 14.6787L29.7648 14.4292L30.3968 16.3729L29.6312 16.6217C29.405 16.696 29.2116 16.8468 29.0844 17.0481C28.9573 17.2495 28.9042 17.4888 28.9343 17.7251C29.043 18.5701 29.043 19.4256 28.9343 20.2707C28.9042 20.5067 28.9572 20.7459 29.0841 20.9472C29.211 21.1485 29.404 21.2994 29.63 21.374L30.3968 21.6229L29.7648 23.5665L28.9986 23.3177C28.7717 23.2441 28.5262 23.2522 28.3047 23.3407C28.0831 23.4291 27.8995 23.5923 27.7856 23.8019C27.375 24.5504 26.871 25.2437 26.2857 25.8651C26.1226 26.0383 26.0248 26.2629 26.0091 26.5004C25.9935 26.7378 26.0609 26.9733 26.1999 27.1664L26.6743 27.8192L25.0193 29.02L24.5455 28.3672C24.4046 28.1747 24.2008 28.0375 23.9695 27.9794C23.7381 27.9213 23.4937 27.946 23.2785 28.0491C22.5092 28.4138 21.6964 28.6785 20.8598 28.8367C20.6253 28.8799 20.4132 29.0037 20.2603 29.1867C20.1074 29.3697 20.0233 29.6004 20.0225 29.8389V30.6462H17.9801V29.8414C17.9794 29.6029 17.8953 29.3722 17.7424 29.1892C17.5895 29.0062 17.3774 28.8824 17.1428 28.8392C16.3063 28.681 15.4934 28.4163 14.7241 28.0515C14.5089 27.9485 14.2644 27.9239 14.033 27.982C13.8015 28.0401 13.5976 28.1772 13.4565 28.3697L12.9833 29.0225L11.3283 27.8217L11.8034 27.1677C11.9422 26.9744 12.0095 26.7387 11.9935 26.5013C11.9775 26.2638 11.8793 26.0393 11.7157 25.8664C11.1321 25.2452 10.6295 24.5526 10.2201 23.805Z" fill="white"/>
<path id="Vector_2" d="M19.0019 26.9684C20.5779 26.9684 22.1186 26.501 23.429 25.6254C24.7394 24.7499 25.7607 23.5054 26.3638 22.0493C26.9669 20.5933 27.1247 18.9911 26.8173 17.4454C26.5098 15.8996 25.7509 14.4798 24.6365 13.3654C23.5221 12.251 22.1022 11.4921 20.5565 11.1846C19.0108 10.8771 17.4086 11.0349 15.9526 11.6381C14.4965 12.2412 13.252 13.2625 12.3764 14.5729C11.5008 15.8833 11.0335 17.4239 11.0335 18.9999C11.0359 21.1125 11.8763 23.1379 13.3701 24.6318C14.8639 26.1256 16.8893 26.9659 19.0019 26.9684ZM19.0019 12.2574C20.3355 12.2574 21.6391 12.6529 22.7479 13.3937C23.8567 14.1346 24.7209 15.1876 25.2312 16.4197C25.7415 17.6517 25.8751 19.0074 25.6149 20.3153C25.3547 21.6233 24.7126 22.8247 23.7696 23.7676C22.8267 24.7106 21.6253 25.3527 20.3173 25.6129C19.0094 25.8731 17.6537 25.7395 16.4217 25.2292C15.1897 24.7189 14.1366 23.8547 13.3957 22.7459C12.6549 21.6371 12.2594 20.3335 12.2594 18.9999C12.2615 17.2123 12.9726 15.4986 14.2366 14.2346C15.5006 12.9706 17.2144 12.2595 19.0019 12.2574Z" fill="white"/>
<path id="Vector_3" d="M16.5458 22.5931C16.6378 22.6471 16.7422 22.6762 16.8489 22.6775C16.9555 22.6788 17.0606 22.6522 17.1539 22.6004L22.6705 19.5357C22.766 19.4826 22.8456 19.4049 22.901 19.3107C22.9564 19.2165 22.9856 19.1092 22.9856 18.9999C22.9856 18.8907 22.9564 18.7834 22.901 18.6892C22.8456 18.595 22.766 18.5173 22.6705 18.4642L17.1539 15.3994C17.0606 15.3477 16.9554 15.3212 16.8487 15.3226C16.7421 15.3239 16.6376 15.3531 16.5457 15.4072C16.4537 15.4613 16.3775 15.5385 16.3245 15.6311C16.2716 15.7237 16.2437 15.8285 16.2436 15.9352V22.0647C16.2436 22.1715 16.2715 22.2764 16.3245 22.3691C16.3775 22.4617 16.4538 22.539 16.5458 22.5931ZM17.4695 16.9772L21.1105 18.9999L17.4695 21.0227V16.9772Z" fill="white"/>
<path id="Vector_4" d="M19.0019 1.22426C21.8926 1.22473 24.7396 1.92975 27.2965 3.27828L27.8702 2.19457C24.28 0.301113 20.1778 -0.393147 16.1645 0.213452C12.1511 0.820051 8.43739 2.69564 5.56711 5.56557C2.69684 8.4355 0.820808 12.149 0.21373 16.1623C-0.393348 20.1756 0.300423 24.2778 2.19345 27.8682L3.27716 27.2945C1.84916 24.5852 1.14521 21.5529 1.23352 18.4916C1.32184 15.4302 2.19942 12.4436 3.78124 9.82108C5.36305 7.19857 7.59546 5.02913 10.2621 3.52296C12.9288 2.01679 15.9393 1.22498 19.0019 1.22426Z" fill="white"/>
<path id="Vector_5" d="M34.7267 10.7056C36.4992 14.0642 37.1494 17.9022 36.5821 21.6573C36.0148 25.4123 34.2599 28.887 31.5744 31.5721C28.8888 34.2573 25.414 36.0118 21.6589 36.5786C17.9037 37.1454 14.0658 36.4947 10.7074 34.7218L10.1337 35.8055C13.7239 37.699 17.826 38.3932 21.8394 37.7866C25.8527 37.18 29.5665 35.3044 32.4367 32.4345C35.307 29.5646 37.1831 25.8511 37.7901 21.8378C38.3972 17.8245 37.7034 13.7223 35.8104 10.1318L34.7267 10.7056Z" fill="white"/>
<path id="Vector_6" d="M30.3416 8.57968H34.0194C34.1819 8.57968 34.3378 8.5151 34.4528 8.40015C34.5677 8.28519 34.6323 8.12929 34.6323 7.96672V4.28898C34.6323 4.12642 34.5677 3.97051 34.4528 3.85556C34.3378 3.7406 34.1819 3.67603 34.0194 3.67603H30.3416C30.1791 3.67603 30.0232 3.7406 29.9082 3.85556C29.7932 3.97051 29.7287 4.12642 29.7287 4.28898V7.96672C29.7287 8.12929 29.7932 8.28519 29.9082 8.40015C30.0232 8.5151 30.1791 8.57968 30.3416 8.57968ZM30.9546 4.90194H33.4064V7.35376H30.9546V4.90194Z" fill="white"/>
<path id="Vector_7" d="M7.66225 29.4202H3.98451C3.82194 29.4202 3.66603 29.4847 3.55108 29.5997C3.43613 29.7146 3.37155 29.8706 3.37155 30.0331V33.7109C3.37155 33.8734 3.43613 34.0293 3.55108 34.1443C3.66603 34.2592 3.82194 34.3238 3.98451 34.3238H7.66225C7.82481 34.3238 7.98072 34.2592 8.09567 34.1443C8.21062 34.0293 8.2752 33.8734 8.2752 33.7109V30.0331C8.2752 29.8706 8.21062 29.7146 8.09567 29.5997C7.98072 29.4847 7.82481 29.4202 7.66225 29.4202ZM7.04929 33.0979H4.59746V30.6461H7.04929V33.0979Z" fill="white"/>
</g>
</svg>
