<svg width="42" height="43" viewBox="0 0 42 43" fill="none" xmlns="http://www.w3.org/2000/svg">
<path d="M26.1536 27.347C26.2681 27.2641 26.3571 27.1508 26.4106 27.02C26.4641 26.8891 26.4799 26.7459 26.4562 26.6066L25.624 21.7545L29.1486 18.3188C29.2496 18.2202 29.321 18.0955 29.3548 17.9585C29.3886 17.8215 29.3835 17.6778 29.34 17.5436C29.2964 17.4095 29.2162 17.2901 29.1084 17.1991C29.0006 17.1081 28.8695 17.049 28.7299 17.0286L23.8577 16.3224L21.6798 11.9082C21.6172 11.7817 21.5204 11.6752 21.4005 11.6007C21.2805 11.5263 21.1421 11.4868 21.001 11.4868C20.8598 11.4868 20.7214 11.5263 20.6014 11.6007C20.4815 11.6752 20.3847 11.7817 20.3221 11.9082L18.1442 16.3224L13.272 17.0286C13.1324 17.049 13.0013 17.1081 12.8935 17.1991C12.7857 17.2901 12.7055 17.4095 12.662 17.5436C12.6184 17.6778 12.6133 17.8215 12.6471 17.9585C12.6809 18.0955 12.7523 18.2202 12.8533 18.3188L16.3779 21.7545L15.5457 26.6066C15.5218 26.7457 15.5373 26.8888 15.5904 27.0196C15.6435 27.1504 15.7322 27.2637 15.8464 27.3467C15.9606 27.4297 16.0957 27.4791 16.2366 27.4893C16.3774 27.4995 16.5182 27.4702 16.6432 27.4045L20.9999 25.1136L25.3577 27.4045C25.4824 27.4705 25.6232 27.5001 25.7639 27.4899C25.9046 27.4798 26.0397 27.4302 26.1536 27.347ZM24.2814 20.9485C24.1938 21.0343 24.1283 21.1401 24.0905 21.2568C24.0528 21.3734 24.0438 21.4975 24.0645 21.6183L24.7041 25.3507L21.352 23.5884C21.2431 23.5311 21.122 23.5011 20.9989 23.5011C20.8759 23.5011 20.7547 23.5311 20.6459 23.5884L17.2938 25.3507L17.9334 21.6183C17.954 21.4975 17.9451 21.3734 17.9073 21.2568C17.8696 21.1401 17.8041 21.0343 17.7165 20.9485L15.004 18.3056L18.7525 17.7609C18.8738 17.7432 18.989 17.6962 19.0882 17.6239C19.1873 17.5517 19.2673 17.4564 19.3214 17.3463L20.9999 13.9499L22.6765 17.3463C22.7305 17.4564 22.8106 17.5517 22.9097 17.6239C23.0088 17.6962 23.1241 17.7432 23.2454 17.7609L26.9939 18.3056L24.2814 20.9485Z" fill="white"/>
<path d="M35.1496 30.1413C34.0934 30.4439 32.5359 30.914 30.9512 31.4002C30.9636 31.3547 30.9819 31.3109 31.0056 31.2701L31.1832 30.9725C31.2541 30.8515 31.3696 30.7631 31.505 30.7264C32.6812 30.4086 34.5131 30.0838 34.5312 30.0808L34.5736 30.0717C34.807 30.0167 35.0264 29.9136 35.2177 29.7689C35.409 29.6242 35.568 29.4412 35.6844 29.2315C35.8008 29.0218 35.8722 28.7901 35.8938 28.5512C35.9155 28.3124 35.8871 28.0716 35.8103 27.8444L34.7269 24.6285C34.714 24.5903 34.7123 24.5492 34.722 24.5101C34.7316 24.471 34.7522 24.4354 34.7814 24.4076L37.2518 22.0824C37.4262 21.9178 37.5643 21.7186 37.6573 21.4976C37.7504 21.2766 37.7964 21.0386 37.7923 20.7988C37.7882 20.5591 37.7342 20.3228 37.6336 20.105C37.5331 19.8873 37.3883 19.693 37.2084 19.5344L34.6623 17.2909C34.6322 17.2643 34.6104 17.2297 34.5993 17.1911C34.5882 17.1525 34.5884 17.1115 34.5998 17.073L35.5753 13.8219C35.6439 13.5921 35.664 13.3506 35.6341 13.1127C35.6042 12.8747 35.525 12.6457 35.4016 12.4401C35.2782 12.2345 35.1133 12.0569 34.9174 11.9186C34.7215 11.7803 34.4989 11.6844 34.2639 11.6369L30.935 10.9681C30.8956 10.96 30.8592 10.9408 30.8303 10.9127C30.8013 10.8847 30.781 10.849 30.7716 10.8097L29.9909 7.50712C29.9356 7.2737 29.8323 7.05438 29.6875 6.86317C29.5427 6.67196 29.3595 6.51308 29.1498 6.39668C28.9401 6.28028 28.7084 6.20893 28.4695 6.18718C28.2306 6.16544 27.9898 6.19379 27.7625 6.27041L24.5487 7.3548C24.5107 7.3676 24.4698 7.36926 24.4308 7.35962C24.3918 7.34997 24.3565 7.3294 24.3288 7.30033L22.0016 4.82689C21.837 4.65252 21.6378 4.51439 21.4168 4.42133C21.1958 4.32826 20.9578 4.2823 20.718 4.28638C20.4782 4.29046 20.2419 4.3445 20.0242 4.44503C19.8065 4.54557 19.6121 4.6904 19.4535 4.87027L17.2101 7.41634C17.1834 7.44662 17.1486 7.46861 17.1098 7.47969C17.071 7.49078 17.0298 7.4905 16.9912 7.47888L13.737 6.50443C13.5072 6.43543 13.2656 6.41516 13.0276 6.44492C12.7896 6.47468 12.5604 6.55381 12.3547 6.67726C12.149 6.8007 11.9714 6.96573 11.8332 7.16179C11.695 7.35784 11.5992 7.5806 11.5521 7.8158L10.8833 11.1446C10.8751 11.1841 10.8559 11.2205 10.8279 11.2494C10.7998 11.2784 10.7641 11.2987 10.7249 11.3081L7.42226 12.0888C7.18944 12.1446 6.97077 12.2482 6.7802 12.393C6.58962 12.5379 6.4313 12.7209 6.31534 12.9304C6.19938 13.1398 6.12831 13.3711 6.10665 13.6095C6.085 13.8479 6.11324 14.0882 6.18958 14.3151L7.27297 17.531C7.28584 17.5692 7.28756 17.6103 7.27791 17.6494C7.26826 17.6885 7.24765 17.7241 7.21849 17.7519L4.74808 20.0781C4.57374 20.2426 4.43562 20.4417 4.34257 20.6626C4.24951 20.8836 4.20355 21.1215 4.20764 21.3612C4.21172 21.6009 4.26575 21.8371 4.36627 22.0547C4.4668 22.2724 4.61161 22.4666 4.79146 22.6251L7.33752 24.8686C7.3676 24.8954 7.38945 24.9302 7.40052 24.969C7.41159 25.0077 7.41144 25.0488 7.40007 25.0875C7.40007 25.1026 7.39099 25.1177 7.38796 25.1329L6.74539 27.8958C4.94477 28.2168 3.20203 28.8043 1.57458 29.6389C1.40524 29.7389 1.28146 29.9008 1.22946 30.0904C1.17747 30.2801 1.20134 30.4825 1.29603 30.6548C1.39072 30.8272 1.54878 30.9558 1.73673 31.0136C1.92467 31.0714 2.12774 31.0538 2.30289 30.9644C2.34324 30.9432 6.33786 28.7845 10.6059 29.2233C12.8705 29.4564 14.1707 30.2936 15.3187 31.033C16.1741 31.5838 16.9831 32.1043 18.012 32.2596C22.6966 32.9658 24.3601 33.45 24.3671 34.7815C24.3735 34.8672 24.3572 34.9531 24.3198 35.0304C24.2824 35.1078 24.2253 35.174 24.1543 35.2223C23.8577 35.4463 22.8076 35.9093 19.4525 35.3797C18.1981 35.176 16.9556 34.9049 15.7303 34.5676C15.5378 34.5136 15.3317 34.538 15.1571 34.6355C14.9826 34.733 14.8537 34.8956 14.7986 35.0878C14.7436 35.28 14.7668 35.4862 14.8633 35.6613C14.9598 35.8364 15.1217 35.9662 15.3137 36.0223C16.5931 36.3761 17.8909 36.6597 19.2013 36.8716C20.1651 37.0357 21.1401 37.1247 22.1176 37.1379C23.4663 37.1379 24.4377 36.9019 25.0662 36.4318C25.3249 36.2423 25.534 35.9931 25.6757 35.7054C25.8175 35.4178 25.8876 35.1001 25.8802 34.7795C25.8802 34.7058 25.8802 34.6362 25.8712 34.5666C27.5679 34.032 33.0332 32.3192 35.5682 31.5949C36.8422 31.2307 37.51 31.5212 37.6482 31.8047C37.7673 32.0488 37.618 32.5108 37.0087 32.9587C36.1159 33.6073 32.6025 35.5562 28.7955 37.4224C24.4408 39.5559 21.2229 40.8319 20.1879 40.835H20.1334C13.6583 40.835 2.27061 37.4991 2.15562 37.4658C1.96312 37.409 1.75598 37.4311 1.57977 37.5271C1.40355 37.6231 1.27269 37.7852 1.21597 37.9777C1.15925 38.1702 1.18133 38.3773 1.27733 38.5536C1.37334 38.7298 1.53542 38.8606 1.72791 38.9174C1.75716 38.9254 4.69159 39.7889 8.40276 40.6322C13.3738 41.7691 17.32 42.3471 20.1324 42.3471H20.1929C23.2757 42.338 36.0494 35.526 37.8994 34.1763C39.0443 33.344 39.4902 32.1214 39.009 31.1359C38.5702 30.2533 37.3284 29.5179 35.1496 30.1413ZM18.237 30.7627C17.5309 30.6568 16.9145 30.2583 16.1378 29.761C14.9112 28.9711 13.3849 27.9876 10.7602 27.7183C9.95791 27.6382 9.1501 27.6294 8.34627 27.6921L8.85669 25.496C8.94482 25.1833 8.94291 24.852 8.85119 24.5402C8.75947 24.2285 8.58166 23.949 8.3382 23.7338L5.79112 21.4903C5.7693 21.4706 5.75184 21.4466 5.7399 21.4198C5.72796 21.3929 5.72178 21.3638 5.72178 21.3345C5.72178 21.3051 5.72796 21.276 5.7399 21.2492C5.75184 21.2223 5.7693 21.1983 5.79112 21.1786L8.25548 18.8545C8.49488 18.628 8.6646 18.3378 8.74466 18.0181C8.82472 17.6984 8.81179 17.3624 8.7074 17.0498L7.623 13.8309C7.61349 13.8031 7.60992 13.7737 7.61253 13.7444C7.61513 13.7152 7.62384 13.6868 7.6381 13.6611C7.65237 13.6354 7.67186 13.613 7.69532 13.5954C7.71879 13.5777 7.74569 13.5652 7.77431 13.5586L11.0769 12.7778C11.3976 12.7014 11.6898 12.5349 11.9189 12.2979C12.1481 12.0609 12.3046 11.7633 12.3701 11.4402L13.0389 8.11136C13.0449 8.08267 13.0567 8.05551 13.0736 8.03162C13.0906 8.00772 13.1123 7.9876 13.1374 7.97253C13.1625 7.95745 13.1905 7.94776 13.2196 7.94404C13.2486 7.94033 13.2781 7.94269 13.3063 7.95097L16.5615 8.92844C16.8773 9.02252 17.2135 9.02435 17.5304 8.93374C17.8472 8.84313 18.1316 8.66385 18.35 8.41701L20.5924 5.86993C20.6116 5.84753 20.6354 5.82959 20.6622 5.8174C20.6891 5.8052 20.7183 5.79903 20.7477 5.79932C20.777 5.79865 20.806 5.80414 20.8329 5.81544C20.8599 5.82673 20.8841 5.84359 20.9041 5.86489L23.2313 8.33429C23.4576 8.57371 23.7476 8.74346 24.0671 8.82353C24.3867 8.90359 24.7225 8.89065 25.0349 8.78621L28.2508 7.70181C28.2786 7.69262 28.308 7.6893 28.3371 7.69205C28.3663 7.69479 28.3945 7.70355 28.4201 7.71777C28.4457 7.73199 28.4681 7.75136 28.4858 7.77465C28.5035 7.79795 28.5162 7.82467 28.5231 7.85312L29.3039 11.1557C29.3803 11.4764 29.5468 11.7686 29.7838 11.9977C30.0208 12.2269 30.3184 12.3834 30.6415 12.449L33.9703 13.1188C33.9995 13.1243 34.0272 13.1362 34.0512 13.1536C34.0753 13.1711 34.0952 13.1936 34.1096 13.2196C34.1251 13.2445 34.1351 13.2724 34.1387 13.3015C34.1424 13.3306 34.1397 13.3602 34.1307 13.3881L33.1502 16.6352C33.0562 16.9511 33.0543 17.2873 33.1449 17.6041C33.2355 17.921 33.4148 18.2054 33.6617 18.4237L36.2087 20.6702C36.2309 20.6897 36.2487 20.7135 36.261 20.7403C36.2734 20.767 36.2799 20.7961 36.2804 20.8256C36.2813 20.8549 36.2758 20.8841 36.2643 20.9111C36.2528 20.9381 36.2356 20.9623 36.2138 20.9819L33.7444 23.3091C33.5049 23.5357 33.3351 23.8261 33.2551 24.146C33.175 24.4659 33.188 24.802 33.2925 25.1147L34.3769 28.3306C34.3864 28.3583 34.3899 28.3877 34.3873 28.4169C34.3847 28.4461 34.376 28.4745 34.3617 28.5001C34.3354 28.5484 34.2912 28.5846 34.2387 28.6009C33.9865 28.6463 32.2827 28.954 31.1116 29.2707C30.5969 29.4097 30.1567 29.7442 29.8849 30.2028L29.7084 30.4994C29.4813 30.8807 29.3827 31.3248 29.427 31.7664C29.427 31.8027 29.434 31.837 29.4381 31.8672C27.697 32.4069 26.1153 32.9032 25.3617 33.1403C24.2632 31.6655 21.5164 31.2559 18.237 30.7627Z" fill="white"/>
<path d="M20.6973 3.72327C20.898 3.72327 21.0904 3.64356 21.2323 3.50168C21.3742 3.3598 21.4539 3.16736 21.4539 2.96671V0.756557C21.4539 0.555905 21.3742 0.363472 21.2323 0.22159C21.0904 0.0797082 20.898 0 20.6973 0C20.4967 0 20.3042 0.0797082 20.1624 0.22159C20.0205 0.363472 19.9408 0.555905 19.9408 0.756557V2.96873C19.9413 3.16903 20.0212 3.36095 20.1631 3.50239C20.3049 3.64384 20.497 3.72327 20.6973 3.72327Z" fill="white"/>
<path d="M15.9149 6.10903C15.9578 6.26993 16.0527 6.41215 16.1847 6.51357C16.3168 6.615 16.4787 6.66995 16.6452 6.66989C16.7113 6.66954 16.7771 6.66072 16.8409 6.64366C17.0348 6.59164 17.2001 6.46479 17.3005 6.29098C17.401 6.11716 17.4283 5.91058 17.3765 5.71663L16.8621 3.80002C16.8363 3.70404 16.7919 3.61408 16.7314 3.53527C16.6708 3.45646 16.5954 3.39035 16.5093 3.3407C16.3354 3.24044 16.1289 3.21335 15.9351 3.26538C15.7412 3.31742 15.576 3.44432 15.4757 3.61817C15.3755 3.79203 15.3484 3.99859 15.4004 4.19242L15.9149 6.10903Z" fill="white"/>
<path d="M9.15025 10.6463C9.22066 10.7166 9.30422 10.7723 9.39616 10.8103C9.4881 10.8483 9.58663 10.8678 9.6861 10.8677C9.78558 10.8676 9.88407 10.8479 9.97594 10.8097C10.0678 10.7716 10.1513 10.7157 10.2215 10.6453C10.2918 10.5749 10.3475 10.4913 10.3855 10.3994C10.4235 10.3075 10.443 10.2089 10.4429 10.1095C10.4428 10.01 10.4231 9.91149 10.385 9.81962C10.3468 9.72775 10.2909 9.6443 10.2205 9.57402L8.81535 8.17187C8.74553 8.09964 8.66202 8.04205 8.56969 8.00244C8.47737 7.96284 8.37809 7.94201 8.27763 7.94119C8.17718 7.94036 8.07756 7.95955 7.9846 7.99764C7.89165 8.03572 7.8072 8.09194 7.7362 8.163C7.6652 8.23407 7.60906 8.31857 7.57107 8.41157C7.53307 8.50456 7.51397 8.60419 7.51489 8.70465C7.51581 8.8051 7.53673 8.90437 7.57642 8.99665C7.61612 9.08893 7.67379 9.17239 7.74608 9.24215L9.15025 10.6463Z" fill="white"/>
<path d="M3.10787 16.5171C3.08194 16.613 3.07521 16.7132 3.08807 16.8118C3.10092 16.9104 3.1331 17.0054 3.18277 17.0915C3.23244 17.1777 3.29861 17.2531 3.3775 17.3136C3.45639 17.3741 3.54645 17.4185 3.6425 17.4441L5.55911 17.9586C5.623 17.9753 5.68877 17.9838 5.75481 17.9838C5.93805 17.9833 6.11492 17.9164 6.25254 17.7954C6.39017 17.6745 6.47921 17.5076 6.50312 17.3259C6.52703 17.1443 6.48419 16.9601 6.38256 16.8076C6.28092 16.6551 6.1274 16.5447 5.9505 16.4969L4.03389 15.9824C3.93798 15.9567 3.83793 15.95 3.73947 15.963C3.641 15.9759 3.54605 16.0081 3.46004 16.0578C3.37403 16.1074 3.29866 16.1735 3.23823 16.2524C3.1778 16.3312 3.1335 16.4211 3.10787 16.5171Z" fill="white"/>
<path d="M2.9485 26.325C2.99171 26.4858 3.08666 26.6278 3.21866 26.7292C3.35067 26.8305 3.51239 26.8856 3.67882 26.8859C3.74527 26.886 3.81143 26.8772 3.87553 26.8597L5.99389 26.2917C6.18772 26.2397 6.35294 26.1128 6.4532 25.939C6.55346 25.7651 6.58056 25.5585 6.52852 25.3647C6.47649 25.1709 6.34958 25.0057 6.17573 24.9054C6.00188 24.8051 5.79532 24.778 5.60149 24.8301L3.48313 25.399C3.38718 25.4246 3.29723 25.4689 3.21842 25.5294C3.13961 25.5898 3.07348 25.6652 3.02383 25.7512C2.97417 25.8372 2.94196 25.9321 2.92903 26.0306C2.91611 26.1291 2.92272 26.2291 2.9485 26.325Z" fill="white"/>
<path d="M35.5127 24.5771C35.4869 24.673 35.4803 24.773 35.4932 24.8715C35.5062 24.97 35.5384 25.0649 35.588 25.1509C35.6377 25.2369 35.7038 25.3123 35.7826 25.3727C35.8614 25.4332 35.9514 25.4775 36.0473 25.5031L37.9639 26.0176C38.0278 26.0343 38.0936 26.0428 38.1596 26.0428C38.3429 26.0424 38.5198 25.9754 38.6574 25.8544C38.795 25.7335 38.884 25.5666 38.908 25.385C38.9319 25.2033 38.889 25.0191 38.7874 24.8666C38.6858 24.7141 38.5322 24.6037 38.3553 24.5559L36.4387 24.0414C36.3428 24.0157 36.2426 24.0091 36.1441 24.0221C36.0456 24.0351 35.9506 24.0674 35.8646 24.1172C35.7786 24.1669 35.7032 24.2331 35.6428 24.3121C35.5825 24.391 35.5382 24.4811 35.5127 24.5771Z" fill="white"/>
<path d="M37.8096 15.4004L35.893 15.9149C35.7161 15.9627 35.5626 16.0731 35.461 16.2256C35.3593 16.378 35.3165 16.5622 35.3404 16.7439C35.3643 16.9256 35.4533 17.0924 35.591 17.2134C35.7286 17.3344 35.9055 17.4013 36.0887 17.4017C36.1552 17.4019 36.2213 17.3931 36.2854 17.3755L38.202 16.8621C38.3959 16.81 38.5611 16.6831 38.6613 16.5093C38.7616 16.3354 38.7887 16.1289 38.7367 15.935C38.6846 15.7412 38.5577 15.576 38.3839 15.4757C38.21 15.3754 38.0035 15.3484 37.8096 15.4004Z" fill="white"/>
<path d="M31.3537 10.2205C31.4958 10.362 31.6882 10.4414 31.8888 10.4414C32.0894 10.4414 32.2818 10.362 32.4239 10.2205L33.8281 8.81534C33.9659 8.67259 34.042 8.48144 34.0402 8.28308C34.0384 8.08471 33.9587 7.89499 33.8184 7.75479C33.6781 7.61458 33.4883 7.5351 33.2899 7.53347C33.0915 7.53184 32.9005 7.60819 32.7578 7.74607L31.3537 9.15024C31.2834 9.2205 31.2276 9.30393 31.1895 9.39575C31.1515 9.48757 31.1319 9.58599 31.1319 9.68538C31.1319 9.78477 31.1515 9.88319 31.1895 9.97501C31.2276 10.0668 31.2834 10.1503 31.3537 10.2205Z" fill="white"/>
<path d="M24.577 6.48726C24.6407 6.50482 24.7065 6.51365 24.7726 6.51349C24.9391 6.51322 25.1008 6.45814 25.2328 6.35676C25.3648 6.25539 25.4598 6.11336 25.503 5.95263L26.0174 4.03602C26.0693 3.84219 26.0421 3.63568 25.9418 3.46192C25.8414 3.28817 25.6761 3.16139 25.4823 3.10949C25.2885 3.05759 25.082 3.08481 24.9082 3.18517C24.7344 3.28553 24.6077 3.4508 24.5558 3.64463L24.0413 5.56124C23.9896 5.75507 24.0169 5.96151 24.1174 6.13516C24.2178 6.30882 24.3831 6.43547 24.577 6.48726Z" fill="white"/>
<path d="M11.0678 5.91316C11.1342 6.02831 11.2298 6.12392 11.3449 6.19034C11.46 6.25675 11.5906 6.29163 11.7235 6.29144C11.8564 6.29212 11.987 6.25729 12.1018 6.19057C12.2753 6.09016 12.4019 5.92497 12.4538 5.73129C12.5056 5.5376 12.4784 5.33127 12.3782 5.15761L11.2686 3.241C11.2189 3.1549 11.1528 3.07942 11.0739 3.01888C10.9951 2.95834 10.9051 2.91392 10.8091 2.88816C10.713 2.8624 10.6129 2.85581 10.5143 2.86875C10.4158 2.88169 10.3207 2.91392 10.2346 2.9636C10.1485 3.01328 10.073 3.07943 10.0125 3.15827C9.95196 3.23712 9.90754 3.32712 9.88178 3.42313C9.85602 3.51914 9.84943 3.61929 9.86237 3.71785C9.87531 3.81641 9.90754 3.91146 9.95722 3.99756L11.0678 5.91316Z" fill="white"/>
<path d="M2.94346 11.7933L4.86007 12.9029C4.94617 12.9526 5.04122 12.9848 5.13978 12.9977C5.23834 13.0107 5.33849 13.0041 5.4345 12.9783C5.53051 12.9526 5.62051 12.9082 5.69936 12.8476C5.7782 12.7871 5.84435 12.7116 5.89403 12.6255C5.9437 12.5394 5.97593 12.4443 5.98888 12.3458C6.00182 12.2472 5.99523 12.1471 5.96947 12.0511C5.94371 11.955 5.89929 11.865 5.83875 11.7862C5.77821 11.7074 5.70273 11.6412 5.61662 11.5915L3.70001 10.4819C3.61391 10.4322 3.51886 10.4 3.4203 10.3871C3.32174 10.3741 3.22159 10.3807 3.12558 10.4065C3.02957 10.4322 2.93957 10.4766 2.86072 10.5372C2.78188 10.5977 2.71573 10.6732 2.66605 10.7593C2.61638 10.8454 2.58415 10.9405 2.5712 11.039C2.55826 11.1376 2.56485 11.2377 2.59061 11.3337C2.61637 11.4298 2.66079 11.5198 2.72133 11.5986C2.78187 11.6774 2.85735 11.7436 2.94346 11.7933Z" fill="white"/>
<path d="M3.72522 21.3017C3.72522 21.1011 3.64552 20.9086 3.50363 20.7668C3.36175 20.6249 3.16932 20.5452 2.96867 20.5452H0.756496C0.555844 20.5452 0.363411 20.6249 0.22153 20.7668C0.0796476 20.9086 -6.10352e-05 21.1011 -6.10352e-05 21.3017C-6.10352e-05 21.5024 0.0796476 21.6948 0.22153 21.8367C0.363411 21.9786 0.555844 22.0583 0.756496 22.0583H2.96867C3.16932 22.0583 3.36175 21.9786 3.50363 21.8367C3.64552 21.6948 3.72522 21.5024 3.72522 21.3017Z" fill="white"/>
<path d="M41.2434 19.9419H39.0312C38.8306 19.9419 38.6381 20.0216 38.4962 20.1635C38.3544 20.3054 38.2747 20.4978 38.2747 20.6985C38.2747 20.8991 38.3544 21.0915 38.4962 21.2334C38.6381 21.3753 38.8306 21.455 39.0312 21.455H41.2434C41.444 21.455 41.6365 21.3753 41.7784 21.2334C41.9202 21.0915 41.9999 20.8991 41.9999 20.6985C41.9999 20.4978 41.9202 20.3054 41.7784 20.1635C41.6365 20.0216 41.444 19.9419 41.2434 19.9419Z" fill="white"/>
<path d="M36.466 12.4801C36.5984 12.4801 36.7285 12.4454 36.8433 12.3792L38.7599 11.2696C38.846 11.2199 38.9215 11.1538 38.982 11.0749C39.0425 10.9961 39.087 10.9061 39.1127 10.8101C39.1385 10.7141 39.1451 10.6139 39.1321 10.5153C39.1192 10.4168 39.087 10.3217 39.0373 10.2356C38.9876 10.1495 38.9215 10.074 38.8426 10.0135C38.7638 9.95297 38.6738 9.90855 38.5777 9.88279C38.4817 9.85703 38.3816 9.85043 38.283 9.86338C38.1845 9.87632 38.0894 9.90855 38.0033 9.95823L36.0867 11.0678C35.9422 11.1511 35.8292 11.2797 35.7653 11.4338C35.7014 11.5878 35.6902 11.7587 35.7335 11.9198C35.7767 12.0808 35.872 12.2231 36.0045 12.3244C36.137 12.4258 36.2992 12.4805 36.466 12.4801Z" fill="white"/>
<path d="M29.3725 5.88909C29.5463 5.9892 29.7527 6.01622 29.9464 5.96421C30.1401 5.91219 30.3052 5.78539 30.4055 5.61168L31.5151 3.69507C31.5647 3.60896 31.597 3.51392 31.6099 3.41536C31.6229 3.3168 31.6163 3.21665 31.5905 3.12064C31.5647 3.02463 31.5203 2.93463 31.4598 2.85578C31.3992 2.77694 31.3238 2.71079 31.2377 2.66111C31.1516 2.61143 31.0565 2.5792 30.958 2.56626C30.8594 2.55332 30.7592 2.55991 30.6632 2.58567C30.5672 2.61143 30.4772 2.65585 30.3984 2.71639C30.3195 2.77693 30.2534 2.85241 30.2037 2.93851L29.0941 4.85512C29.0444 4.94128 29.0122 5.03638 28.9993 5.13499C28.9864 5.23361 28.9931 5.3338 29.0189 5.42983C29.0448 5.52586 29.0893 5.61586 29.15 5.69466C29.2107 5.77347 29.2863 5.83953 29.3725 5.88909Z" fill="white"/>
</svg>
