<svg width="37" height="37" viewBox="0 0 37 37" fill="none" xmlns="http://www.w3.org/2000/svg">
<path d="M27.7413 37H26.6574V35.9161H27.7413C32.2215 35.9161 35.8708 32.2668 35.8708 27.7866V20.7121C35.8708 20.4158 35.6251 20.1702 35.3288 20.1702H20.6668C20.3706 20.1702 20.1249 20.4158 20.1249 20.7121V35.3741C20.1249 35.6704 20.3706 35.9161 20.6668 35.9161H23.4056V37H20.6668C19.7708 37 19.0409 36.2702 19.0409 35.3741V20.7121C19.0409 19.8161 19.7708 19.0862 20.6668 19.0862H35.3288C36.2249 19.0862 36.9547 19.8161 36.9547 20.7121V27.7866C36.9547 30.2363 35.9936 32.5487 34.2521 34.2974C32.5034 36.0389 30.191 37 27.7413 37ZM25.5734 37H24.4895V35.9161H25.5734V37ZM16.2878 37H9.21329C6.76361 37 4.45122 36.0389 2.70248 34.2974C0.960964 32.5487 -0.00012207 30.2363 -0.00012207 27.7866V20.7121C-0.00012207 19.8161 0.729725 19.0862 1.62577 19.0862H16.2878C17.1838 19.0862 17.9137 19.8161 17.9137 20.7121V35.3741C17.9137 36.2702 17.1838 37 16.2878 37ZM1.62577 20.1702C1.3295 20.1702 1.08381 20.4158 1.08381 20.7121V27.7866C1.08381 32.2668 4.73305 35.9161 9.21329 35.9161H16.2878C16.584 35.9161 16.8297 35.6704 16.8297 35.3741V20.7121C16.8297 20.4158 16.584 20.1702 16.2878 20.1702H1.62577ZM35.3288 17.9156H20.6668C19.7708 17.9156 19.0409 17.1857 19.0409 16.2897V1.6277C19.0409 0.731655 19.7708 0.00180817 20.6668 0.00180817H27.7413C30.191 0.00180817 32.5034 0.962894 34.2521 2.70441C35.9936 4.44593 36.9547 6.75831 36.9547 9.21523V16.2897C36.9547 17.1857 36.2249 17.9156 35.3288 17.9156ZM20.6668 1.08574C20.3706 1.08574 20.1249 1.33143 20.1249 1.6277V16.2897C20.1249 16.586 20.3706 16.8316 20.6668 16.8316H35.3288C35.6251 16.8316 35.8708 16.586 35.8708 16.2897V9.21523C35.8708 4.73497 32.2215 1.08574 27.7413 1.08574H20.6668ZM16.2878 17.9156H1.62577C0.729725 17.9156 -0.00012207 17.1857 -0.00012207 16.2897V11.3831H1.08381V16.2897C1.08381 16.586 1.3295 16.8316 1.62577 16.8316H16.2878C16.584 16.8316 16.8297 16.586 16.8297 16.2897V1.6277C16.8297 1.33143 16.584 1.08574 16.2878 1.08574H9.21329C4.73305 1.08574 1.08381 4.73497 1.08381 9.21523V10.2992H-0.00012207V9.21523C-0.00012207 6.76554 0.960964 4.45315 2.70248 2.70441C4.444 0.962894 6.75638 0.00180817 9.21329 0.00180817H16.2878C17.1838 0.00180817 17.9137 0.731655 17.9137 1.6277V16.2897C17.9137 17.1857 17.1838 17.9156 16.2878 17.9156Z" fill="white"/>
<path d="M10.0772 13.1401C9.09442 13.1401 8.14056 12.7282 7.5191 12.0418L7.15779 11.6371L7.9599 10.9072L8.32121 11.3119C8.74033 11.7744 9.39792 12.049 10.0772 12.049C10.8287 12.0562 11.3129 11.5937 11.3924 11.1602C11.4718 10.7121 11.125 10.3147 10.4313 10.0618C9.4774 9.70769 8.63194 9.33192 8.59581 9.31747C8.5669 9.30302 8.54522 9.28857 8.52354 9.27411C7.94545 8.89835 7.64917 8.24077 7.75034 7.55428C7.85873 6.8172 8.4007 6.21743 9.16668 5.98619C10.742 5.50926 12.0355 6.58597 12.0933 6.62932L12.5052 6.97618L11.8042 7.80719L11.3924 7.46034C11.3707 7.43866 10.4674 6.72326 9.4774 7.02676C9.11609 7.13516 8.8704 7.3953 8.81982 7.71325C8.78369 7.96617 8.87763 8.20464 9.07996 8.34916C9.26784 8.42865 10.0049 8.75383 10.807 9.0501C12.2306 9.57039 12.5919 10.5821 12.4546 11.348C12.2739 12.3669 11.2551 13.1401 10.0772 13.1401Z" fill="white"/>
<path d="M24.211 13.092L22.8163 6.02481L23.8786 5.81525L24.8613 10.8013L26.2632 5.95977H27.3472L28.7418 10.8013L29.7318 5.82247L30.8013 6.03926L29.3922 13.0848L28.2793 13.092L26.8052 7.99034L25.3311 13.0848L24.211 13.092Z" fill="white"/>
<path d="M29.8081 25.2263H23.8031V23.7811H29.8081V25.2263Z" fill="white"/>
<path d="M27.5222 32.2212H26.077V22.7838H27.5222V32.2212Z" fill="white"/>
<path d="M9.93657 31.1357C7.92769 31.1357 6.30179 29.5026 6.30179 27.501C6.30179 25.4993 7.93491 23.8662 9.93657 23.8662C11.9382 23.8662 13.5714 25.4921 13.5714 27.501C13.5714 29.5098 11.9382 31.1357 9.93657 31.1357ZM9.93657 24.9501C8.52746 24.9501 7.38572 26.0991 7.38572 27.501C7.38572 28.9028 8.53469 30.0518 9.93657 30.0518C11.3385 30.0518 12.4874 28.9101 12.4874 27.501C12.4874 26.0918 11.3385 24.9501 9.93657 24.9501Z" fill="white"/>
<path d="M32.4321 4.78491H31.3482V3.70098H32.4321V4.78491ZM30.2642 3.70098H29.1803V2.61705H30.2642V3.70098Z" fill="white"/>
</svg>
