<svg xmlns="http://www.w3.org/2000/svg" width="47" height="35" viewBox="0 0 47 35" fill="none"><path d="M40.185 11.9785C41.5217 10.6786 42.3 8.90303 42.3 7C42.3 3.14034 39.1376 0 35.25 0C33.9656 0 32.7019 0.350547 31.5942 1.014C31.2239 1.23621 31.1046 1.71391 31.3279 2.08195C31.5513 2.45 32.0332 2.5673 32.4035 2.34628C33.2672 1.82902 34.251 1.55559 35.25 1.55559C38.2731 1.55559 40.7333 3.99793 40.7333 7C40.7333 8.84871 39.8008 10.5528 38.2357 11.5607C36.9214 12.4167 35.2553 12.6635 33.7338 12.2332C33.3222 12.1155 32.8846 12.354 32.7653 12.7672C32.6467 13.1803 32.8877 13.6106 33.3039 13.7287C33.9373 13.9088 34.5921 13.9999 35.25 13.9999C36.4817 13.9999 37.6723 13.6663 38.7294 13.0638C42.7506 14.5106 45.4333 18.2803 45.4333 22.5555V26.4444H38.2904C37.7356 21.2495 34.4439 16.7035 29.6426 14.5449C31.1705 13.0003 32.1166 10.8865 32.1166 8.55559C32.1167 3.83797 28.2512 0 23.4999 0C18.7487 0 14.8832 3.83797 14.8832 8.55559C14.8832 10.8872 15.8298 13.0017 17.3585 14.5464C15.7427 15.2753 14.2441 16.2951 12.9731 17.5499C10.5365 19.9761 9.05381 23.0901 8.70186 26.4446H1.56655V22.5557C1.56655 19.8623 2.62607 17.3228 4.54693 15.4076C5.60434 14.3643 6.89171 13.5684 8.27785 13.0682C9.33508 13.6682 10.5221 14 11.7499 14C12.4078 14 13.0626 13.9089 13.696 13.7288C14.1121 13.6107 14.3531 13.1804 14.2346 12.7673C14.1152 12.3541 13.6776 12.1159 13.2661 12.2333C11.7453 12.6643 10.08 12.4179 8.76042 11.5588C7.19914 10.5528 6.26657 8.8488 6.26657 7C6.26657 3.99793 8.72674 1.55559 11.7499 1.55559C12.7489 1.55559 13.7327 1.82902 14.5963 2.34628C14.9681 2.5673 15.4478 2.44882 15.6719 2.08195C15.8953 1.714 15.7759 1.23621 15.4057 1.014C14.298 0.350547 13.0343 0 11.7499 0C7.86228 0 4.69987 3.14034 4.69987 7C4.69987 8.90158 5.47693 10.6758 6.80973 11.9745C5.56744 12.5479 4.42007 13.3395 3.43921 14.3069C1.22148 16.5186 -0.000152588 19.4479 -0.000152588 22.5556V27.2223C-0.000152588 27.6518 0.350237 28 0.783153 28H8.61649V34.2223C8.61649 34.6518 8.96688 35 9.39979 35H37.5999C38.0329 35 38.3832 34.6517 38.3832 34.2223V28H46.2165C46.6495 28 46.9998 27.6517 46.9998 27.2223V22.5556C47 17.9568 44.3084 13.8658 40.185 11.9785ZM16.4499 8.55559C16.4499 4.69592 19.6123 1.55559 23.4999 1.55559C27.3876 1.55559 30.55 4.69592 30.55 8.55559C30.55 12.4152 27.3876 15.5556 23.4999 15.5556C19.6123 15.5556 16.4499 12.4152 16.4499 8.55559ZM36.8167 33.4444H10.1832V28C10.1832 24.4734 11.5678 21.1523 14.08 18.6504C15.4034 17.3433 17.0079 16.3295 18.728 15.6736C20.0954 16.5802 21.736 17.1111 23.4999 17.1111C25.2669 17.1111 26.9103 16.5787 28.2789 15.6693C33.3992 17.6227 36.8167 22.524 36.8167 28V33.4444Z" fill="white"></path></svg>