<svg xmlns="http://www.w3.org/2000/svg" width="44" height="45" viewBox="0 0 44 45" fill="none"><path d="M42.4434 31.6725H28.3669C28.0145 31.6725 27.7224 31.3803 27.7224 31.0279C27.7224 30.6756 28.0145 30.3834 28.3669 30.3834H42.4434C42.5895 30.3834 42.6583 30.2889 42.6841 30.2287C42.7099 30.1686 42.7442 30.0568 42.6497 29.9451L39.4013 25.8975C39.2122 25.6654 39.2122 25.3303 39.4013 25.0896L42.6497 21.042C42.7442 20.9303 42.7099 20.8186 42.6841 20.7584C42.6583 20.6982 42.5895 20.6037 42.4434 20.6037H1.55439C1.40829 20.6037 1.33954 20.6982 1.31376 20.7584C1.28798 20.8186 1.2536 20.9303 1.34814 21.042L4.59657 25.0982C4.78563 25.3303 4.78563 25.6654 4.59657 25.9061L1.34814 29.9537C1.2536 30.0654 1.28798 30.1771 1.31376 30.2373C1.33954 30.2975 1.40829 30.392 1.55439 30.392H25.3591C25.7114 30.392 26.0036 30.6842 26.0036 31.0365C26.0036 31.3889 25.7114 31.6811 25.3591 31.6811H1.55439C0.952823 31.6811 0.411417 31.3459 0.153604 30.7959C-0.104208 30.2459 -0.0354585 29.6186 0.342667 29.1459L3.27313 25.5021L0.342667 21.8498C-0.0354585 21.3771 -0.104208 20.7498 0.153604 20.2084C0.411417 19.667 0.952823 19.3232 1.55439 19.3232H42.4434C43.045 19.3232 43.5864 19.6584 43.8442 20.2084C44.102 20.7498 44.0333 21.3857 43.6552 21.8584L40.7247 25.5021L43.6552 29.1459C44.0333 29.6186 44.102 30.2459 43.8442 30.7959C43.5864 31.3459 43.045 31.6725 42.4434 31.6725Z" fill="white"></path><path d="M31.3059 15.0693C31.1255 15.0693 30.9536 15.0005 30.8247 14.8544L27.9028 11.6232C27.688 11.3825 27.6794 11.013 27.8942 10.7638L31.4692 6.68175C32.1825 5.54738 33.1536 4.413 34.288 3.39035C35.8692 1.95519 37.6138 0.88097 39.2036 0.348158C40.9653 -0.236217 42.3661 -0.0815297 43.1481 0.786439C43.9302 1.65441 43.9473 3.06378 43.1911 4.75675C42.5036 6.27785 41.2575 7.91066 39.6763 9.33722C38.5419 10.3599 37.313 11.2107 36.1184 11.8122L31.6841 14.9489C31.5638 15.0263 31.4348 15.0693 31.3059 15.0693ZM29.2434 11.1849L31.3919 13.5653L35.3966 10.7294C35.4223 10.7122 35.4567 10.695 35.4825 10.6778C36.5911 10.1364 37.7341 9.33722 38.7911 8.38331C40.2434 7.06847 41.3864 5.59035 41.9966 4.23253C42.5208 3.07238 42.5809 2.10988 42.177 1.65441C41.3177 0.700502 38.1208 1.64581 35.1388 4.34425C34.0817 5.29816 33.1794 6.36378 32.5263 7.41222C32.5091 7.438 32.4833 7.47238 32.4661 7.49816L29.2434 11.1849Z" fill="white"></path><path d="M35.8005 11.8897C35.6286 11.8897 35.4481 11.8209 35.3192 11.6748L31.5294 7.48106C31.2888 7.21466 31.3145 6.81075 31.5724 6.57013C31.8388 6.3295 32.2427 6.35528 32.4833 6.61309L36.2731 10.8068C36.5138 11.0733 36.488 11.4772 36.2302 11.7178C36.1099 11.8295 35.9552 11.8897 35.8005 11.8897Z" fill="white"></path><path d="M10.1653 20.6123C10.0708 20.6123 9.98486 20.5951 9.89033 20.5521C9.56376 20.3974 9.42626 20.0193 9.58095 19.6927C10.2513 18.2662 11.1536 16.9685 12.2794 15.8427C12.5286 15.5935 12.9411 15.5849 13.1903 15.8427C13.4395 16.092 13.4481 16.5045 13.1903 16.7537C12.1763 17.7763 11.3513 18.9537 10.7497 20.2427C10.638 20.4748 10.406 20.6123 10.1653 20.6123Z" fill="white"></path><path d="M15.0809 15.0605C14.8661 15.0605 14.6599 14.9574 14.5309 14.7598C14.3419 14.459 14.4364 14.0637 14.7372 13.8746C16.9114 12.5168 19.4208 11.7949 21.9989 11.7949C23.0903 11.7949 24.1817 11.9238 25.2388 12.1816C25.5825 12.2676 25.7974 12.6113 25.7114 12.9637C25.6255 13.3074 25.2817 13.5223 24.9294 13.4363C23.9669 13.2043 22.9786 13.084 21.9903 13.084C19.6614 13.084 17.3841 13.7371 15.4161 14.966C15.3216 15.0262 15.2013 15.0605 15.0809 15.0605Z" fill="white"></path><path d="M33.8325 20.6123C33.5919 20.6123 33.3598 20.4748 33.2481 20.2427C32.5606 18.7818 31.6153 17.4755 30.4208 16.3755C30.163 16.1349 30.1458 15.7224 30.3864 15.4646C30.627 15.2068 31.0395 15.1896 31.2974 15.4302C32.6122 16.6505 33.6606 18.0857 34.4169 19.6927C34.5716 20.0193 34.4255 20.3974 34.1075 20.5521C34.0216 20.5951 33.927 20.6123 33.8325 20.6123Z" fill="white"></path><path d="M5.92002 20.6121C5.86845 20.6121 5.81689 20.6035 5.75674 20.5949C5.41299 20.509 5.20674 20.1566 5.29267 19.8129C5.44736 19.2113 5.48174 18.5238 5.51611 17.802C5.58486 16.5301 5.64502 15.2066 6.40127 14.1754C7.16611 13.127 8.40361 12.6543 9.59814 12.1988C10.363 11.9066 11.0763 11.6316 11.6263 11.2363C12.1677 10.841 12.6403 10.248 13.1474 9.62071C13.9552 8.61524 14.7888 7.57539 16.0349 7.16289C17.2294 6.77617 18.4927 7.11133 19.713 7.44649C20.5208 7.66133 21.277 7.86758 21.9903 7.86758C22.7036 7.86758 23.4599 7.66133 24.2677 7.44649C25.488 7.11992 26.7513 6.77617 27.9458 7.16289C28.977 7.49805 29.7247 8.27149 30.3778 9.05352C30.6099 9.32852 30.5669 9.73242 30.2919 9.96446C30.0169 10.1965 29.613 10.1535 29.381 9.87852C28.8481 9.24258 28.2638 8.62383 27.5419 8.3918C26.7083 8.12539 25.6856 8.40039 24.5942 8.69258C23.7435 8.92461 22.8669 9.15664 21.9817 9.15664C21.0966 9.15664 20.22 8.91602 19.3692 8.69258C18.2864 8.40039 17.2552 8.12539 16.4216 8.3918C15.5364 8.67539 14.8575 9.52617 14.1442 10.4285C13.6114 11.0988 13.0528 11.7863 12.3825 12.2762C11.695 12.7746 10.8614 13.0926 10.0536 13.402C8.98799 13.8059 7.97392 14.1926 7.44111 14.9316C6.91689 15.6621 6.85674 16.7277 6.79658 17.8707C6.7622 18.627 6.71924 19.4004 6.53017 20.1309C6.47002 20.4145 6.20361 20.6121 5.92002 20.6121Z" fill="white"></path><path d="M38.0778 20.6122C37.7942 20.6122 37.5278 20.4145 37.4505 20.1224C37.2614 19.3919 37.227 18.6099 37.1841 17.8622C37.1239 16.7278 37.0724 15.6536 36.5395 14.9231C36.0067 14.1841 34.9927 13.806 33.927 13.3935C33.8067 13.3505 33.6778 13.2989 33.5575 13.256C33.2224 13.127 33.0591 12.7575 33.188 12.4224C33.3169 12.0872 33.6864 11.9239 34.0216 12.0528C34.1419 12.0958 34.2622 12.1474 34.3825 12.1903C35.577 12.6458 36.8231 13.1185 37.5794 14.1669C38.3356 15.2067 38.4044 16.5216 38.4645 17.7935C38.4989 18.5153 38.5333 19.2028 38.688 19.8044C38.7739 20.1481 38.5677 20.5005 38.2239 20.5864C38.1809 20.6036 38.1294 20.6122 38.0778 20.6122Z" fill="white"></path><path d="M27.0435 18.4639C26.6911 18.4639 26.3302 18.4295 25.9692 18.3693C24.5513 18.1287 23.1591 17.4068 22.1536 16.3928C21.8356 16.0748 21.7067 15.6193 21.8013 15.181C21.8958 14.7428 22.1966 14.3904 22.6177 14.2271C23.1075 14.0381 23.5458 13.5482 24.0442 12.9896C24.7231 12.2248 25.4966 11.3568 26.7341 10.8498C27.2669 10.6264 27.8513 10.5318 28.427 10.5662C28.7794 10.5834 29.0544 10.8928 29.0372 11.2451C29.02 11.5975 28.7106 11.8725 28.3583 11.8553C27.9802 11.8295 27.5849 11.8982 27.2325 12.0443C26.27 12.4396 25.6341 13.1615 25.0153 13.8576C24.431 14.5193 23.8724 15.1381 23.0903 15.4389C23.0817 15.4389 23.0731 15.4475 23.0731 15.456C23.0731 15.4732 23.0817 15.4818 23.0817 15.4904C24.4739 16.8912 27.456 18.0514 29.7247 16.2467C30.2919 15.7998 30.6356 15.1209 30.6614 14.399C30.6786 14.0467 30.9794 13.7717 31.3317 13.7803C31.6841 13.7975 31.9591 14.0982 31.9505 14.4506C31.8989 15.5506 31.3833 16.5646 30.5239 17.2521C29.5099 18.0514 28.3239 18.4639 27.0435 18.4639Z" fill="white"></path><path d="M21.9989 39.2092C19.3435 39.2092 16.7653 38.4443 14.5481 37.0092C12.3911 35.6084 10.6724 33.6318 9.58095 31.3115C9.42626 30.985 9.57236 30.6068 9.89033 30.4522C10.2169 30.2975 10.595 30.4436 10.7497 30.7615C12.7864 35.11 17.2036 37.9201 21.9989 37.9201C26.7942 37.9201 31.2114 35.11 33.2481 30.7615C33.4028 30.435 33.781 30.2975 34.1075 30.4522C34.4341 30.6068 34.5716 30.985 34.4169 31.3115C33.3255 33.6404 31.6067 35.6084 29.4497 37.0092C27.2325 38.4443 24.6544 39.2092 21.9989 39.2092Z" fill="white"></path><path d="M26.7942 44.0045C25.9606 44.0045 25.1013 43.7725 24.2763 43.549C23.4685 43.3342 22.7122 43.1279 21.9989 43.1279C21.2856 43.1279 20.5294 43.3342 19.7216 43.549C18.5013 43.8756 17.238 44.2193 16.0435 43.8326C14.7974 43.4287 13.9638 42.3889 13.156 41.3748C12.6489 40.7475 12.1763 40.1545 11.6349 39.7592C11.0849 39.3639 10.363 39.0889 9.60673 38.7967C8.4122 38.3412 7.16611 37.8686 6.40986 36.8201C5.65361 35.7803 5.58486 34.4654 5.5247 33.1936C5.49033 32.4717 5.45595 31.7842 5.30126 31.1826C5.21533 30.8389 5.42158 30.4865 5.76533 30.4006C6.10908 30.3146 6.46142 30.5209 6.54736 30.8646C6.73642 31.5951 6.7708 32.3771 6.81376 33.1248C6.87392 34.2592 6.92548 35.3334 7.4583 36.0639C7.99111 36.8029 9.00517 37.1811 10.0708 37.5936C10.8786 37.9029 11.7122 38.2209 12.3997 38.7193C13.0786 39.2092 13.6286 39.9053 14.1614 40.567C14.8833 41.4693 15.5622 42.3115 16.4388 42.6037C17.2724 42.8701 18.295 42.5951 19.3864 42.3029C20.2372 42.0709 21.1138 41.8389 21.9989 41.8389C22.8841 41.8389 23.7606 42.0795 24.6114 42.3029C25.6942 42.5951 26.7255 42.8701 27.5591 42.6037C28.4442 42.3201 29.1231 41.4693 29.8364 40.567C30.3692 39.8967 30.9278 39.2092 31.5981 38.7193C32.2856 38.2209 33.1192 37.9029 33.927 37.5936C34.9927 37.1896 36.0067 36.8029 36.5395 36.0639C37.0724 35.3334 37.1239 34.2678 37.1841 33.1248C37.2185 32.3686 37.2614 31.5951 37.4505 30.8646C37.5364 30.5209 37.8888 30.3146 38.2325 30.4006C38.5763 30.4865 38.7825 30.8389 38.6966 31.1826C38.5419 31.7842 38.5075 32.4717 38.4731 33.1936C38.4044 34.4654 38.3442 35.7889 37.588 36.8201C36.8231 37.8686 35.5856 38.3412 34.3911 38.7967C33.6263 39.0889 32.913 39.3639 32.363 39.7592C31.8216 40.1545 31.3489 40.7475 30.8419 41.3748C30.0341 42.3803 29.2005 43.4201 27.9544 43.8326C27.5763 43.9529 27.1895 44.0045 26.7942 44.0045Z" fill="white"></path><path d="M23.6059 28.9568C23.3481 28.9568 23.0989 28.7936 23.0044 28.5357L21.3974 24.2732L19.7731 28.5357C19.6442 28.8709 19.2747 29.0342 18.9395 28.9053C18.6044 28.7764 18.4411 28.4068 18.57 28.0717L20.6841 22.5287C20.6841 22.5201 20.6841 22.5201 20.6927 22.5115C20.813 22.2193 21.088 22.0303 21.4059 22.0303C21.7239 22.0303 21.9989 22.2193 22.1192 22.5115C22.1192 22.5201 22.1278 22.5201 22.1278 22.5287L24.2161 28.0717C24.345 28.4068 24.1731 28.7764 23.838 28.9053C23.7606 28.9396 23.6833 28.9568 23.6059 28.9568Z" fill="white"></path><path d="M22.9614 27.5732H19.8333C19.481 27.5732 19.1888 27.2811 19.1888 26.9287C19.1888 26.5764 19.481 26.2842 19.8333 26.2842H22.9614C23.3138 26.2842 23.606 26.5764 23.606 26.9287C23.606 27.2811 23.3138 27.5732 22.9614 27.5732Z" fill="white"></path><path d="M26.356 28.9568C26.0036 28.9568 25.7114 28.6646 25.7114 28.3123V22.7005C25.7114 22.4169 25.8919 22.1677 26.1669 22.0818C26.4333 21.9958 26.7255 22.099 26.8888 22.331L29.6388 26.3099L29.6044 22.6919C29.6044 22.3396 29.888 22.0474 30.2403 22.0388C30.2403 22.0388 30.2403 22.0388 30.2489 22.0388C30.6013 22.0388 30.8935 22.3224 30.8935 22.6748L30.945 28.106C30.945 28.4669 30.7474 28.7591 30.438 28.8537C30.1372 28.9482 29.8192 28.8279 29.6216 28.5529L27.0005 24.763V28.3037C27.0005 28.6646 26.7169 28.9568 26.356 28.9568Z" fill="white"></path><path d="M33.0591 28.9568C32.8872 28.9568 32.7239 28.888 32.6036 28.7677C32.4833 28.6474 32.4146 28.4841 32.4146 28.3123L32.406 22.8552C32.406 22.6833 32.4747 22.5201 32.595 22.3998C32.7153 22.2794 32.8786 22.2107 33.0505 22.2107H34.5974C36.2989 22.2107 37.4419 23.5685 37.4419 25.5794C37.4419 27.4959 36.2646 28.9138 34.6489 28.9396L33.0591 28.9568ZM33.695 23.4998L33.7036 27.6591L34.6317 27.6505C35.6802 27.6334 36.1528 26.5935 36.1528 25.5794C36.1528 24.574 35.7403 23.4998 34.5974 23.4998H33.695Z" fill="white"></path><path d="M7.20049 25.9232C7.02861 25.9232 6.86533 25.8544 6.74502 25.7341C6.6247 25.6138 6.55595 25.4505 6.55595 25.2787V22.6833C6.55595 22.331 6.84814 22.0388 7.20049 22.0388H8.8333C9.34892 22.0388 9.83877 22.2365 10.1997 22.606C10.5692 22.9755 10.7669 23.4568 10.7669 23.9724C10.7669 25.038 9.89892 25.9146 8.8247 25.9146C8.48095 25.9146 7.20908 25.9232 7.20049 25.9232C7.20908 25.9232 7.20908 25.9232 7.20049 25.9232ZM7.84502 23.3279V24.6255C8.21455 24.6255 8.65283 24.6255 8.8333 24.6255C9.19424 24.6255 9.48642 24.3333 9.48642 23.9724C9.48642 23.8005 9.41767 23.6373 9.29736 23.5169C9.17705 23.3966 9.01377 23.3279 8.84189 23.3279H7.84502Z" fill="white"></path><path d="M7.20049 28.9569C7.02861 28.9569 6.86533 28.8882 6.74502 28.7679C6.6247 28.6476 6.55595 28.4843 6.55595 28.3124V25.2788C6.55595 24.9265 6.84814 24.6343 7.20049 24.6343H9.11689C9.69267 24.6343 10.2341 24.8577 10.6466 25.2702C11.0591 25.6827 11.2825 26.2155 11.2825 26.7999C11.2825 27.9858 10.3114 28.9569 9.12548 28.9569C8.70439 28.9483 7.20908 28.9569 7.20049 28.9569C7.20908 28.9569 7.20908 28.9569 7.20049 28.9569ZM7.84502 25.9233V27.6679C8.30908 27.6679 8.88486 27.6679 9.11689 27.6679C9.59814 27.6679 9.98486 27.2812 9.98486 26.7999C9.98486 26.5679 9.89033 26.353 9.72705 26.1897C9.56377 26.0265 9.34892 25.9319 9.11689 25.9319H7.84502V25.9233Z" fill="white"></path><path d="M16.4302 28.957C16.2497 28.957 16.0692 28.8796 15.9489 28.7421L13.5856 26.0609C13.3536 25.7945 13.3794 25.3905 13.6458 25.1499C13.9122 24.9179 14.3161 24.9437 14.5567 25.2101L16.92 27.8913C17.152 28.1577 17.1263 28.5616 16.8599 28.8023C16.7309 28.8968 16.5849 28.957 16.4302 28.957Z" fill="white"></path><path d="M13.388 28.9567C13.0356 28.9567 12.7435 28.6646 12.7435 28.3122V22.6919C12.7435 22.3396 13.0356 22.0474 13.388 22.0474C13.7403 22.0474 14.0325 22.3396 14.0325 22.6919V28.3122C14.0325 28.6646 13.7489 28.9567 13.388 28.9567Z" fill="white"></path><path d="M13.4052 26.2584C13.0528 26.2584 12.7606 25.9748 12.7606 25.6138C12.7606 25.6138 12.752 24.5482 12.752 24.1443C12.752 23.8091 12.752 22.6833 12.752 22.6833C12.752 22.5115 12.8208 22.3482 12.9411 22.2279C13.0614 22.1076 13.2247 22.0388 13.3966 22.0388H14.8919C16.095 22.0388 17.0833 22.9841 17.0833 24.1443C17.0833 25.3044 16.1036 26.2498 14.8919 26.2498C14.4708 26.2498 13.4052 26.2584 13.4052 26.2584ZM14.0411 23.3279C14.0411 23.6373 14.0411 23.981 14.0411 24.1443C14.0411 24.3333 14.0411 24.6685 14.0411 24.9607C14.3505 24.9607 14.6856 24.9607 14.8833 24.9607C15.3731 24.9607 15.7856 24.5826 15.7856 24.1443C15.7856 23.706 15.3731 23.3279 14.8833 23.3279H14.0411Z" fill="white"></path></svg>