<svg xmlns="http://www.w3.org/2000/svg" width="28" height="37" viewBox="0 0 28 37" fill="none"><path d="M2.36267 16.9879C0.624805 10.7399 4.30742 4.24356 10.5968 2.50569C16.8863 0.767829 23.3412 4.45045 25.0791 10.7399C25.4101 11.9398 27.3134 11.4433 26.9824 10.202C25.0377 2.87809 17.5069 -1.50795 10.1831 0.478185C6.41769 1.47125 3.27298 4.03667 1.49374 7.5124C-0.0786178 10.6157 -0.40964 14.1742 0.500671 17.5258C0.790315 18.7258 2.69369 18.1879 2.36267 16.9879Z" fill="white"></path><path d="M2.23854 22.6568C3.604 22.3671 5.01085 21.7878 5.71427 20.5465C6.29356 19.5534 6.29356 18.3535 6.2108 17.1949C6.04529 15.9122 5.96254 14.6709 5.96254 13.3881C6.04529 11.9399 6.45907 10.5745 7.24525 9.33312C8.73485 6.93321 11.4244 5.56775 14.1967 5.73326C15.7277 5.81601 17.1759 6.35393 18.3759 7.30561C19.4931 8.21592 20.3206 9.3745 20.7758 10.74C21.3137 12.1054 21.8102 13.7192 22.886 14.795C24.086 15.9949 25.7411 15.9949 27.3135 15.5398C28.5134 15.1674 28.0169 13.3054 26.7755 13.6364C26.4859 13.7192 26.1549 13.8019 25.8239 13.8433C25.5756 13.8847 25.2859 13.8847 25.0377 13.8019C24.9963 13.8019 24.6653 13.6778 24.8308 13.7605C24.7067 13.7192 24.6239 13.6364 24.4998 13.595C24.3343 13.5123 24.4584 13.5537 24.4998 13.595C24.4584 13.5537 24.417 13.5123 24.3756 13.4709C24.2515 13.3468 24.1687 13.264 24.0446 13.1399C24.1274 13.264 23.9205 12.9744 23.9205 12.933C23.8377 12.8089 23.7963 12.6847 23.7136 12.5606C23.5481 12.2709 23.4239 11.9813 23.2998 11.6917C23.0515 11.1124 22.8033 10.4089 22.5136 9.78828C21.9343 8.2573 20.9827 6.93321 19.6999 5.89877C18.3759 4.86433 16.8035 4.1609 15.1484 3.91264C12.0037 3.4161 8.8176 4.49193 6.66596 6.80908C4.59707 9.08486 3.76952 12.1054 4.01778 15.126C4.05916 15.8294 4.14192 16.5328 4.22467 17.1949C4.26605 17.5259 4.26605 17.8156 4.26605 18.1466V18.5604V18.7259C4.30743 18.519 4.26605 18.8086 4.26605 18.8086C4.22467 18.9328 4.18329 19.0569 4.18329 19.181C4.18329 19.2224 4.10054 19.3879 4.14192 19.2638C4.18329 19.1396 4.10054 19.3465 4.10054 19.3879C4.10054 19.4293 3.85227 19.7603 3.9764 19.6362C3.89365 19.7603 3.76952 19.8431 3.64538 19.9672C3.64538 19.9672 3.52125 20.05 3.60401 20.0086L3.39712 20.1741C3.27298 20.2568 3.10747 20.3396 2.94196 20.4224C2.56956 20.5879 2.15578 20.6706 1.74201 20.7534C1.2041 20.8775 0.873074 21.4154 1.03859 21.9533C1.16272 22.4499 1.70063 22.7809 2.23854 22.6568Z" fill="white"></path><path d="M3.31435 26.3392C4.05914 26.1323 4.76257 25.8841 5.46599 25.5117C6.83145 24.891 7.99003 23.8979 8.81758 22.6152C9.35549 21.7463 9.60376 20.7118 9.60376 19.6774C9.60376 19.1395 9.14861 18.6843 8.6107 18.6843C8.07278 18.6843 7.61763 19.1395 7.61763 19.6774C7.61763 19.8843 7.61763 20.0912 7.57625 20.2981C7.57625 20.2981 7.61763 20.0498 7.57625 20.2153L7.53487 20.3394C7.53487 20.4222 7.4935 20.5463 7.45212 20.6291C7.41074 20.7946 7.32799 20.9601 7.28661 21.1256C7.24523 21.2911 7.41074 20.8773 7.28661 21.0842L7.24523 21.2084C7.20385 21.2911 7.16248 21.3739 7.1211 21.4566C7.03834 21.5808 6.95559 21.7463 6.87283 21.8704C6.87283 21.9118 6.70732 22.1187 6.79007 21.9945C6.87283 21.8704 6.70732 22.0773 6.66594 22.1187C6.45905 22.3669 6.21079 22.6152 5.92114 22.8221L5.83839 22.9049C5.71425 23.029 5.79701 22.8635 5.87977 22.8635C5.83839 22.8635 5.75563 22.9462 5.71425 22.9876C5.59012 23.0704 5.46599 23.1531 5.30048 23.2773C5.05221 23.4428 4.76257 23.6083 4.5143 23.7324C4.39017 23.8152 4.26603 23.8565 4.1419 23.8979L3.93501 23.9807C3.85226 24.0221 3.7695 24.0221 4.05914 23.9393L3.93501 23.9807C3.72812 24.0634 3.52123 24.1462 3.31435 24.1876C3.10746 24.2289 2.85919 24.3117 2.6523 24.3945C2.11439 24.56 1.82475 25.0565 1.94888 25.5944C2.11439 26.0909 2.6523 26.422 3.14883 26.2978L3.31435 26.3392Z" fill="white"></path><path d="M26.61 17.6086C24.9135 17.981 23.1757 17.6086 21.7688 16.6155C20.6102 15.6638 19.6999 14.4225 19.2034 12.9743C18.9551 12.3122 18.831 11.6088 18.5 10.9881C18.2517 10.4502 17.8793 9.95371 17.4242 9.58131C16.5552 8.79513 15.3966 8.2986 14.2381 8.25722C13.0381 8.17446 11.8795 8.58824 11.052 9.4158C10.0175 10.3675 9.64514 11.8157 9.64514 13.1812C9.7279 14.919 10.1417 16.6569 10.8865 18.2293C11.5071 19.6775 12.3347 21.0016 13.3691 22.2015C16.307 25.6359 20.7344 27.0427 25.1204 27.1255C26.3618 27.1668 26.3618 25.1807 25.1204 25.1807C21.5206 25.1393 17.9621 24.1049 15.3966 21.5809C14.4036 20.5464 13.576 19.3878 12.9554 18.1051C12.2933 16.8224 11.8382 15.4156 11.6313 13.9673C11.5899 13.5949 11.5899 13.2639 11.5899 12.8915C11.5899 12.8088 11.6313 12.395 11.5899 12.5605C11.6313 12.395 11.6313 12.2295 11.6727 12.0226C11.714 11.8985 11.7554 11.7743 11.7968 11.6088C11.7968 11.5674 11.8795 11.4433 11.7968 11.6088C11.8382 11.5261 11.8382 11.4847 11.8795 11.4019C11.9209 11.2778 12.0037 11.195 12.0864 11.0709C12.1278 11.0295 12.1278 10.9882 12.1692 10.9468C12.0451 11.1537 12.1692 10.9468 12.2106 10.9054L12.4588 10.6571L12.583 10.533C12.4174 10.6571 12.5002 10.6157 12.5416 10.5744C12.583 10.533 12.7485 10.4502 12.8312 10.4089C12.914 10.3675 12.9554 10.3675 12.9967 10.3261C12.7898 10.4089 13.2036 10.2434 12.9967 10.3261C13.2036 10.2434 13.4105 10.202 13.6174 10.1606C13.3278 10.2434 13.6588 10.1606 13.7415 10.1606C13.8657 10.1606 14.0312 10.1606 14.1553 10.1606H14.4036C14.5691 10.1606 14.1553 10.1192 14.3622 10.1606C14.4863 10.202 14.5691 10.202 14.6932 10.2434L15.0242 10.3261L15.1898 10.4089C15.2725 10.4502 15.2311 10.4089 15.107 10.3675L15.2311 10.4089C15.438 10.533 15.6449 10.6158 15.8518 10.7399C16.1001 10.9054 15.769 10.6571 15.9759 10.864C16.1001 10.9468 16.1828 11.0709 16.307 11.1537C16.3483 11.195 16.5966 11.4847 16.4311 11.2778C16.5138 11.3605 16.5552 11.4847 16.638 11.5674C16.7207 11.6502 16.7621 11.7743 16.8035 11.8985L16.8862 12.0226C16.8035 11.8157 16.8862 12.064 16.9276 12.1053C17.1345 12.7674 17.3414 13.4708 17.631 14.0915C18.3345 15.788 19.493 17.2362 20.9826 18.2706C22.8033 19.512 25.0377 19.7602 27.1893 19.3465C27.7272 19.1809 28.0169 18.643 27.8927 18.1465C27.6445 17.7741 27.1479 17.4845 26.61 17.6086Z" fill="white"></path><path d="M26.1135 21.6637C25.5756 21.6637 25.0377 21.6637 24.4998 21.6223L23.9618 21.5809H24.0032H23.8791L23.5067 21.5395C23.0929 21.4568 22.6791 21.374 22.2654 21.2499C21.3137 21.0016 20.4447 20.6292 19.6172 20.1327C18.6655 19.5948 17.8379 18.8914 17.1759 18.0224C16.2656 16.8639 15.6449 15.4984 15.2725 14.0502C14.9829 12.8088 13.0795 13.3468 13.3691 14.5881C13.9898 17.3604 15.6449 19.8017 18.0034 21.4568C20.4447 22.9464 23.2584 23.6912 26.1135 23.6084C27.3548 23.5671 27.3962 21.6223 26.1135 21.6637Z" fill="white"></path><path d="M5.30049 29.815C6.04529 29.484 6.79009 29.1116 7.49351 28.6978C8.15555 28.3254 8.8176 27.9116 9.43826 27.4151C10.0176 26.9599 10.5968 26.2565 11.3003 26.091C12.5416 25.76 13.7415 27.0427 14.6105 27.7461C15.6449 28.4909 16.7621 29.1116 17.9621 29.5667C19.6586 30.2288 21.5206 30.477 23.3412 30.3115C23.8791 30.3115 24.2929 29.8564 24.3343 29.3185C24.3343 28.7806 23.8791 28.3254 23.3412 28.3254C21.7688 28.4495 20.1965 28.2426 18.7069 27.7047C18.0862 27.4978 17.5069 27.2082 16.969 26.8772C16.7207 26.7531 16.4725 26.5875 16.2656 26.422L15.8932 26.1738L15.6449 26.091C14.445 25.1807 13.2036 24.0635 11.5899 24.1049C9.85204 24.1463 8.69347 25.6359 7.328 26.5462C6.70733 26.9599 6.08667 27.291 5.42462 27.622L4.84533 27.9116C4.7212 27.953 4.30742 28.1599 4.80396 27.953C4.30742 28.1185 3.9764 28.6564 4.10053 29.153C4.26604 29.6495 4.76258 29.9805 5.30049 29.815Z" fill="white"></path><path d="M8.15554 32.8356C9.27274 32.4632 10.3072 31.9253 11.2589 31.2632C11.5071 31.0977 11.7554 30.8908 12.0037 30.7253C12.1278 30.6426 12.0864 30.6426 12.045 30.6839C12.0037 30.7253 11.9209 30.7253 12.0037 30.6839C12.0864 30.6426 12.1278 30.6839 11.9623 30.6839C11.7968 30.6839 11.8795 30.6839 11.9209 30.6839C12.0864 30.6839 11.7968 30.6426 11.7968 30.6426C11.7968 30.6426 12.045 30.7253 11.8795 30.6426C11.714 30.5598 12.0037 30.7253 12.0864 30.7667L12.2106 30.8495C12.3761 30.9736 12.1278 30.7667 12.2519 30.8908C12.5416 31.0977 12.7898 31.3046 13.0381 31.5529C13.7829 32.1322 14.5691 32.6287 15.3966 33.0425C16.7207 33.6218 18.2103 33.9528 19.6586 33.9528C20.9413 33.9528 20.9413 32.008 19.6586 32.008C18.5 32.008 17.3828 31.8011 16.307 31.3874C15.8932 31.1805 15.4794 30.9736 15.0656 30.6839C14.9001 30.5598 14.7346 30.4357 14.5277 30.3115L14.4036 30.1047C14.3208 30.0219 14.4036 30.1047 14.445 30.1047L14.3208 29.9805C13.7829 29.484 13.2036 29.1116 12.583 28.822C11.9209 28.6151 11.2175 28.7806 10.6796 29.2357C9.76927 29.9392 8.73483 30.4771 7.65901 30.8908C7.16247 31.0563 6.87283 31.5943 6.99696 32.0908C7.1211 32.6701 7.61763 32.9597 8.15554 32.8356Z" fill="white"></path><path d="M9.89342 34.9459C10.39 35.277 10.9279 35.5252 11.5072 35.6907C12.7071 36.1045 13.9898 36.27 15.2312 36.1045C15.7691 36.1045 16.1828 35.6494 16.2242 35.1114C16.2242 34.6149 15.8104 34.077 15.2312 34.1184C14.9001 34.1598 14.5691 34.1598 14.2381 34.1598C14.0726 34.1598 13.9071 34.1598 13.7829 34.1598H13.576C13.4933 34.1598 13.2864 34.1598 13.5347 34.1598C13.2864 34.1598 12.9968 34.077 12.7485 33.9942C12.5002 33.9115 12.2933 33.8701 12.0451 33.7874L11.7554 33.7046C11.5899 33.6218 11.714 33.7046 11.7968 33.746L11.6727 33.7046C11.5485 33.6218 11.383 33.5805 11.2589 33.4977C11.1348 33.4563 11.0106 33.3736 10.8865 33.2908C10.4313 33.0012 9.81067 33.1667 9.5624 33.6218C9.31413 34.1184 9.43827 34.6977 9.89342 34.9459Z" fill="white"></path></svg>