<svg xmlns="http://www.w3.org/2000/svg" width="34" height="42" viewBox="0 0 34 42" fill="none"><path id="icone funil" d="M4.03238 12.7697H10.0694C9.93626 13.2785 9.86318 13.8153 9.86318 14.3703V15.0134C9.86318 15.9231 10.5575 16.6628 11.4109 16.6628H22.3035C23.1569 16.6628 23.8512 15.9231 23.8512 15.0134V14.3703C23.8512 13.8153 23.7781 13.2785 23.645 12.7697H29.682C30.3911 12.7697 30.9679 12.1588 30.9679 11.4086V10.9302C30.9679 8.68737 29.4471 6.82268 27.467 6.48721C27.7941 6.19792 28.0673 5.82063 28.2726 5.35881C28.9068 3.93502 28.7389 2.01369 27.8985 1.07525C27.3025 0.410406 26.5822 0.100205 25.6304 0.100205C24.676 0.100205 23.9539 0.410406 23.3579 1.07525C22.5175 2.01369 22.3496 3.93502 22.9838 5.35794C23.19 5.81975 23.4632 6.19792 23.7912 6.48721C22.4392 6.72073 21.2621 7.68096 20.6792 9.02807C20.1215 8.75272 19.5133 8.57845 18.8747 8.52617C19.4472 8.13406 19.9127 7.55636 20.245 6.81222C21.0715 4.95799 20.8592 2.46331 19.7726 1.25039C19.0113 0.397336 18.0857 0 16.8615 0C15.634 0 14.7065 0.397336 13.9418 1.25039C12.8551 2.46331 12.6437 4.95799 13.4694 6.81135C13.8009 7.55636 14.2672 8.13406 14.8396 8.52617C14.2011 8.57845 13.5929 8.75272 13.0352 9.02807C12.4515 7.68096 11.2752 6.72073 9.92321 6.48721C10.2512 6.19792 10.5244 5.81975 10.7306 5.35794C11.3648 3.93415 11.1969 2.01282 10.3565 1.07438C9.76052 0.409535 9.04016 0.099334 8.08836 0.099334C7.13396 0.099334 6.41185 0.409535 5.8159 1.07438C4.97547 2.01282 4.80755 3.93415 5.44179 5.35707C5.64711 5.81801 5.9203 6.19618 6.24742 6.48547C4.26641 6.82094 2.7465 8.68563 2.7465 10.9285V11.4069C2.7465 12.1588 3.32332 12.7697 4.03238 12.7697ZM22.8089 15.0134C22.8089 15.341 22.5784 15.6172 22.3052 15.6172H11.4127C11.1395 15.6172 10.9089 15.341 10.9089 15.0134V14.3703C10.9089 11.7144 12.8569 9.55262 15.2512 9.55262H18.4676C20.8619 9.55262 22.8098 11.7136 22.8098 14.3703V15.0134H22.8089ZM24.1374 1.7732C24.5316 1.33317 24.9787 1.14583 25.633 1.14583C26.2838 1.14583 26.7301 1.33317 27.1242 1.7732C27.6305 2.33784 27.8219 3.80868 27.3217 4.93185C27.0816 5.47121 26.5926 6.11427 25.6312 6.11427C24.669 6.11427 24.1801 5.47121 23.9399 4.93098C23.4397 3.80868 23.632 2.33784 24.1374 1.7732ZM24.4332 7.47794H26.8275C28.5362 7.47794 29.9256 9.02633 29.9256 10.9294V11.4077C29.9256 11.5785 29.8151 11.7232 29.6838 11.7232H23.27C22.8724 10.8718 22.2895 10.1399 21.5796 9.59009C22.0607 8.33099 23.1909 7.47794 24.4332 7.47794ZM14.4229 6.38526C13.7721 4.92488 13.9105 2.85106 14.7187 1.94834C15.286 1.31574 15.9263 1.04562 16.8615 1.04562C17.7925 1.04562 18.431 1.31574 18.9983 1.94834C19.8065 2.85106 19.9449 4.92488 19.2941 6.38526C18.9496 7.15902 18.2475 8.08004 16.8589 8.08004C15.4704 8.08091 14.7674 7.15902 14.4229 6.38526ZM6.59282 1.7732C6.98693 1.33317 7.43412 1.14583 8.08836 1.14583C8.73913 1.14583 9.18545 1.33317 9.57956 1.7732C10.0859 2.33784 10.2773 3.80955 9.77705 4.93185C9.53693 5.47121 9.04799 6.11427 8.08662 6.11427C7.12439 6.11427 6.63545 5.47121 6.39532 4.93185C5.89507 3.80955 6.08734 2.33784 6.59282 1.7732ZM3.79051 10.9294C3.79051 9.02633 5.18079 7.47794 6.88862 7.47794H9.28289C10.5253 7.47794 11.6563 8.33099 12.1365 9.59096C11.4257 10.1408 10.8437 10.8727 10.4461 11.724H4.03238C3.901 11.724 3.79051 11.5794 3.79051 11.4086V10.9294ZM18.967 25.9131C19.1706 26.117 19.1706 26.4481 18.967 26.6529L17.3688 28.2536C17.267 28.3555 17.133 28.4069 16.9999 28.4069C16.8668 28.4069 16.7328 28.3555 16.631 28.2536L15.0328 26.6529C14.8292 26.449 14.8292 26.1179 15.0328 25.9131C15.2364 25.7092 15.567 25.7092 15.7714 25.9131L16.4787 26.6215V20.8279C16.4787 20.5395 16.7128 20.3051 17.0007 20.3051C17.2887 20.3051 17.5228 20.5395 17.5228 20.8279V26.6215L18.2301 25.9131C18.4328 25.7092 18.7634 25.7092 18.967 25.9131ZM25.9218 22.9226C26.1254 23.1265 26.1254 23.4576 25.9218 23.6624L24.3236 25.2631C24.2262 25.3607 24.0931 25.4164 23.9547 25.4164C23.8164 25.4164 23.6833 25.3615 23.5859 25.2631L21.9876 23.6624C21.7841 23.4585 21.7841 23.1274 21.9876 22.9226C22.1912 22.7187 22.5218 22.7187 22.7263 22.9226L23.4336 23.631V20.428C23.4336 20.1395 23.6676 19.9051 23.9556 19.9051C24.2436 19.9051 24.4776 20.1395 24.4776 20.428V23.631L25.1849 22.9226C25.3876 22.7179 25.7183 22.7179 25.9218 22.9226ZM12.013 22.9226C12.2166 23.1265 12.2166 23.4576 12.013 23.6624L10.4148 25.2631C10.3173 25.3607 10.1842 25.4164 10.0459 25.4164C9.90756 25.4164 9.77444 25.3615 9.677 25.2631L8.07879 23.6624C7.87521 23.4585 7.87521 23.1274 8.07879 22.9226C8.28238 22.7187 8.61298 22.7187 8.81743 22.9226L9.52475 23.631V20.428C9.52475 20.1395 9.75878 19.9051 10.0468 19.9051C10.3347 19.9051 10.5688 20.1395 10.5688 20.428V23.631L11.2761 22.9226C11.4788 22.7179 11.8085 22.7179 12.013 22.9226ZM33.9999 22.5549V19.2359C33.9999 18.4517 33.363 17.8139 32.58 17.8139H1.41973C0.636725 17.8139 -0.00012207 18.4517 -0.00012207 19.2359V22.541C-0.00012207 23.0263 0.231301 23.4585 0.635856 23.7269L14.3872 32.8465V39.8242C14.3872 40.0116 14.4873 40.1841 14.6491 40.2773C14.7292 40.3235 14.8196 40.347 14.9092 40.347C15.0006 40.347 15.0911 40.3235 15.1729 40.2756L19.2341 37.8977C20.5347 40.3366 23.103 42 26.0515 42C30.3102 42 33.7754 38.5303 33.7754 34.2641C33.7754 30.9304 31.6595 28.0828 28.7015 26.9979L33.3926 23.7217C33.778 23.4515 33.9999 23.0263 33.9999 22.5549ZM32.7305 34.2633C32.7305 37.9517 29.7342 40.9535 26.0506 40.9535C22.367 40.9535 19.3707 37.9526 19.3707 34.2633C19.3707 30.574 22.367 27.573 26.0506 27.573C29.7342 27.573 32.7305 30.5748 32.7305 34.2633ZM32.9559 22.5549C32.9559 22.6874 32.9037 22.7885 32.7949 22.8634L27.3817 26.6433C26.9493 26.5675 26.5039 26.5283 26.0506 26.5283C21.7919 26.5283 18.3266 29.998 18.3266 34.2641C18.3266 35.2035 18.4946 36.1044 18.8025 36.9383L15.4304 38.9128V32.5659C15.4304 32.3838 15.3373 32.2234 15.1963 32.1302L1.21267 22.8547C1.09957 22.7797 1.04476 22.6769 1.04476 22.541V19.2359C1.04476 19.0286 1.21354 18.8595 1.4206 18.8595H32.5809C32.788 18.8595 32.9567 19.0286 32.9567 19.2359V22.5549H32.9559ZM26.0506 29.5231C26.3386 29.5231 26.5726 29.7575 26.5726 30.0459V30.7012C27.4043 30.9216 28.0168 31.6562 28.0168 32.5267C28.0168 32.8151 27.7828 33.0495 27.4948 33.0495C27.2068 33.0495 26.9728 32.8151 26.9728 32.5267C26.9728 32.0596 26.5596 31.6788 26.0506 31.6788C25.5425 31.6788 25.1284 32.0588 25.1284 32.5267C25.1284 33.0172 25.7043 33.2769 26.1872 33.4076C27.7793 33.8398 28.0168 34.7774 28.0168 35.2984C28.0168 36.168 27.4043 36.9026 26.5726 37.1239V37.7792C26.5726 38.0676 26.3386 38.302 26.0506 38.302C25.7626 38.302 25.5286 38.0676 25.5286 37.7792V37.1239C24.6969 36.9035 24.0844 36.1689 24.0844 35.2984C24.0844 35.01 24.3184 34.7756 24.6064 34.7756C24.8944 34.7756 25.1284 35.01 25.1284 35.2984C25.1284 35.7655 25.5416 36.1463 26.0506 36.1463C26.5596 36.1463 26.9728 35.7664 26.9728 35.2984C26.9728 34.8079 26.3969 34.5482 25.914 34.4175C24.3219 33.9853 24.0844 33.0477 24.0844 32.5275C24.0844 31.6579 24.6969 30.9234 25.5286 30.7021V30.0468C25.5286 29.7575 25.7626 29.5231 26.0506 29.5231Z" fill="white"></path></svg>