<svg xmlns="http://www.w3.org/2000/svg" width="36" height="34" viewBox="0 0 36 34" fill="none"><path d="M9.78002 29.1328C9.4554 29.131 9.13474 29.0614 8.83856 28.9285C8.54237 28.7957 8.27719 28.6024 8.05997 28.3612C7.84275 28.1199 7.67829 27.836 7.57709 27.5276C7.4759 27.2191 7.44022 26.8929 7.47232 26.5699L8.24975 18.899L3.11295 13.1484C2.84272 12.8452 2.65663 12.4764 2.57322 12.0789C2.4898 11.6814 2.51196 11.2689 2.6375 10.8826C2.76304 10.4963 2.98758 10.1496 3.28875 9.87706C3.58993 9.60451 3.95724 9.41559 4.35413 9.32913L11.8902 7.69712L15.6603 1.21657C15.876 0.846405 16.185 0.539271 16.5565 0.325804C16.9279 0.112337 17.3489 0 17.7773 0C18.2057 0 18.6266 0.112337 18.9981 0.325804C19.3695 0.539271 19.6785 0.846405 19.8942 1.21657L23.6669 7.69458L31.2038 9.32658C31.6013 9.41257 31.9693 9.6013 32.2711 9.87394C32.5729 10.1466 32.7978 10.4936 32.9236 10.8803C33.0494 11.2671 33.0715 11.6801 32.9879 12.078C32.9042 12.476 32.7176 12.8451 32.4467 13.1484L27.3091 18.899L28.0865 26.5699C28.1275 26.9745 28.0616 27.3828 27.8955 27.754C27.7293 28.1251 27.4687 28.4462 27.1396 28.6852C26.8106 28.9242 26.4246 29.0726 26.0202 29.1158C25.6159 29.1589 25.2072 29.0952 24.8352 28.931L17.7798 25.8222L10.7236 28.931C10.4267 29.0637 10.1052 29.1325 9.78002 29.1328ZM17.7798 1.69896C17.6478 1.69755 17.5178 1.73147 17.4033 1.79721C17.2889 1.86295 17.194 1.95812 17.1287 2.07284L13.167 8.87132C13.1078 8.97299 13.028 9.06122 12.9329 9.13041C12.8377 9.19959 12.7292 9.24821 12.6142 9.27317L4.71274 10.9849C4.60489 11.0077 4.50493 11.0585 4.42287 11.1321C4.34081 11.2057 4.27954 11.2996 4.2452 11.4043C4.21085 11.5091 4.20464 11.621 4.22718 11.7289C4.24972 11.8368 4.30022 11.9369 4.37362 12.0192L9.76052 18.0479C9.83881 18.1356 9.898 18.2386 9.93434 18.3504C9.97069 18.4622 9.98338 18.5803 9.97162 18.6973L9.15774 26.7412C9.14673 26.8506 9.16463 26.9611 9.20964 27.0615C9.25465 27.1619 9.32521 27.2487 9.41426 27.3133C9.50332 27.3779 9.60776 27.418 9.71716 27.4296C9.82656 27.4413 9.9371 27.424 10.0377 27.3796L17.4407 24.1206C17.5483 24.0729 17.6647 24.0482 17.7824 24.0482C17.9001 24.0482 18.0165 24.0729 18.124 24.1206L25.5219 27.3796C25.6225 27.424 25.7331 27.4413 25.8425 27.4296C25.9519 27.418 26.0563 27.3779 26.1454 27.3133C26.2344 27.2487 26.305 27.1619 26.35 27.0615C26.395 26.9611 26.4129 26.8506 26.4019 26.7412L25.588 18.6973C25.5763 18.5803 25.589 18.4622 25.6253 18.3504C25.6616 18.2386 25.7208 18.1356 25.7991 18.0479L31.186 12.0183C31.2592 11.9361 31.3095 11.8361 31.3319 11.7283C31.3544 11.6205 31.3481 11.5087 31.3138 11.404C31.2794 11.2994 31.2182 11.2057 31.1363 11.1321C31.0544 11.0585 30.9546 11.0078 30.8469 10.9849L22.9446 9.27317C22.8296 9.24821 22.7211 9.19959 22.6259 9.13041C22.5308 9.06122 22.451 8.97299 22.3918 8.87132L18.4309 2.06945C18.3652 1.95536 18.2702 1.86087 18.1557 1.79575C18.0413 1.73062 17.9115 1.69721 17.7798 1.69896Z" fill="white"></path><path d="M17.7798 34.0001C17.555 34.0001 17.3393 33.9108 17.1804 33.7518C17.0214 33.5928 16.932 33.3772 16.932 33.1523V29.7611C16.932 29.5363 17.0214 29.3206 17.1804 29.1616C17.3393 29.0027 17.555 28.9133 17.7798 28.9133C18.0047 28.9133 18.2203 29.0027 18.3793 29.1616C18.5383 29.3206 18.6276 29.5363 18.6276 29.7611V33.1523C18.6276 33.3772 18.5383 33.5928 18.3793 33.7518C18.2203 33.9108 18.0047 34.0001 17.7798 34.0001Z" fill="white"></path><path d="M0.847636 21.6976C0.6458 21.6976 0.4506 21.6255 0.297136 21.4944C0.143671 21.3633 0.0420124 21.1818 0.0104391 20.9824C-0.0211341 20.7831 0.01945 20.579 0.124893 20.4069C0.230337 20.2348 0.393722 20.106 0.585667 20.0436L3.80729 18.9957C4.01767 18.9376 4.24235 18.9628 4.43457 19.0662C4.62679 19.1696 4.77175 19.3431 4.83925 19.5507C4.90676 19.7582 4.89163 19.9838 4.797 20.1805C4.70237 20.3771 4.53554 20.5297 4.33123 20.6065L1.1096 21.6544C1.02516 21.6827 0.93671 21.6973 0.847636 21.6976Z" fill="white"></path><path d="M34.712 21.6975C34.623 21.6978 34.5346 21.6837 34.45 21.656L31.2284 20.6081C31.118 20.5776 31.0149 20.525 30.9254 20.4536C30.8359 20.3822 30.7617 20.2933 30.7075 20.1924C30.6532 20.0916 30.62 19.9807 30.6097 19.8667C30.5995 19.7526 30.6125 19.6376 30.6479 19.5287C30.6834 19.4198 30.7405 19.3191 30.8159 19.2329C30.8913 19.1467 30.9834 19.0766 31.0866 19.0269C31.1898 18.9773 31.302 18.9491 31.4164 18.944C31.5308 18.9389 31.6451 18.957 31.7523 18.9973L34.974 20.0452C35.1659 20.1076 35.3293 20.2364 35.4347 20.4085C35.5402 20.5806 35.5808 20.7847 35.5492 20.984C35.5176 21.1834 35.416 21.3649 35.2625 21.496C35.109 21.6271 34.9138 21.6992 34.712 21.6992V21.6975Z" fill="white"></path><path d="M26.2501 4.53639C26.0938 4.53626 25.9406 4.49291 25.8074 4.41115C25.6742 4.32938 25.5661 4.21238 25.4953 4.07306C25.4244 3.93375 25.3934 3.77755 25.4057 3.62173C25.418 3.46591 25.4732 3.31653 25.5651 3.19009L27.5583 0.446625C27.6238 0.356555 27.7064 0.280273 27.8014 0.222134C27.8964 0.163994 28.002 0.125135 28.112 0.107776C28.222 0.0904174 28.3344 0.0948982 28.4426 0.120963C28.5509 0.147028 28.653 0.194166 28.7431 0.259686C28.8332 0.325206 28.9094 0.407825 28.9676 0.502826C29.0257 0.597827 29.0646 0.703348 29.0819 0.813367C29.0993 0.923385 29.0948 1.03575 29.0687 1.14403C29.0427 1.25232 28.9955 1.35441 28.93 1.44448L26.936 4.18625C26.8574 4.29461 26.7543 4.38283 26.6351 4.44369C26.5159 4.50455 26.384 4.53631 26.2501 4.53639Z" fill="white"></path><path d="M9.30947 4.5367C9.17548 4.53676 9.04339 4.50505 8.92402 4.44419C8.80465 4.38333 8.70141 4.29504 8.62276 4.18656L6.62959 1.44479C6.49738 1.26288 6.44284 1.03591 6.47798 0.813798C6.51312 0.591686 6.63505 0.392628 6.81695 0.260417C6.99885 0.128205 7.22583 0.0736695 7.44794 0.108807C7.67005 0.143944 7.86911 0.265876 8.00132 0.447779L9.99449 3.19125C10.0864 3.31768 10.1416 3.46706 10.1539 3.62288C10.1662 3.77871 10.1352 3.9349 10.0643 4.07422C9.99346 4.21353 9.88545 4.33053 9.75223 4.4123C9.61901 4.49407 9.46578 4.53741 9.30947 4.53755V4.5367Z" fill="white"></path></svg>