<svg xmlns="http://www.w3.org/2000/svg" width="237" height="63" viewBox="0 0 237 63" fill="none"><g id="Logo"><g id="Group"><g id="Group_2"><path id="Vector" d="M62.3484 16.0822H66.9118L75.088 24.2507L83.2642 16.0822H87.8276V38.4815H83.2642V22.3744L75.088 30.2124L66.9118 22.3744V38.4815H62.3484V16.0822Z" fill="white"></path><path id="Vector_2" d="M92.8921 29.9681C92.8921 28.8226 93.1272 27.7263 93.5974 26.6793C94.0675 25.6323 94.7439 24.7085 95.6265 23.9058C96.509 23.1031 97.5916 22.4626 98.8722 21.9864C100.153 21.508 101.609 21.2699 103.242 21.2699C104.875 21.2699 106.325 21.5121 107.626 21.9946C108.927 22.477 110.03 23.138 110.938 23.9797C111.845 24.8214 112.54 25.8089 113.024 26.9462C113.509 28.0835 113.752 29.3009 113.752 30.6004C113.752 30.7626 113.75 30.9371 113.744 31.1239C113.74 31.3107 113.728 31.479 113.709 31.633H97.6453C97.8267 32.1401 98.1216 32.602 98.5299 33.0228C98.9382 33.4437 99.4496 33.807 100.062 34.1129C100.677 34.4188 101.386 34.6549 102.192 34.8232C102.998 34.9895 103.891 35.0737 104.869 35.0737C105.846 35.0737 106.822 34.971 107.791 34.7657C108.76 34.5604 109.686 34.2997 110.568 33.9856L112.008 37.2251C111.451 37.4838 110.888 37.7096 110.317 37.9067C109.746 38.1017 109.152 38.266 108.531 38.3932C107.91 38.5205 107.265 38.6191 106.589 38.6868C105.912 38.7525 105.199 38.7874 104.45 38.7874C102.541 38.7874 100.866 38.5575 99.4269 38.0997C97.9876 37.6419 96.7833 37.0157 95.8141 36.2233C94.8449 35.4309 94.115 34.4989 93.6262 33.4293C93.1375 32.3597 92.8921 31.208 92.8921 29.9763V29.9681ZM109.23 28.3196C109.077 27.8515 108.838 27.4143 108.517 27.0078C108.195 26.6013 107.795 26.2482 107.314 25.9464C106.834 25.6447 106.277 25.4086 105.644 25.2361C105.011 25.0637 104.314 24.9775 103.557 24.9775C102.751 24.9775 102.017 25.0678 101.355 25.2505C100.693 25.4311 100.112 25.6754 99.6125 25.9813C99.1135 26.2872 98.699 26.6403 98.367 27.0427C98.035 27.443 97.7937 27.87 97.6391 28.3175H109.226L109.23 28.3196Z" fill="white"></path><path id="Vector_3" d="M119.004 33.2918C120.155 33.9795 121.423 34.4866 122.805 34.8109C124.186 35.1353 125.603 35.2975 127.051 35.2975C128.03 35.2975 128.845 35.2297 129.498 35.0963C130.15 34.9628 130.674 34.7904 131.068 34.581C131.462 34.3716 131.74 34.1314 131.903 33.8645C132.066 33.5976 132.148 33.3246 132.148 33.0475C132.148 32.6471 131.973 32.3023 131.622 32.0149C131.272 31.7274 130.694 31.5858 129.888 31.5858C129.515 31.5858 129.111 31.6104 128.68 31.6576C128.249 31.7049 127.795 31.7562 127.319 31.8075C126.844 31.8609 126.35 31.9102 125.836 31.9574C125.323 32.0046 124.801 32.0292 124.275 32.0292C123.124 32.0292 122.143 31.906 121.33 31.6556C120.52 31.4072 119.86 31.0685 119.351 30.6373C118.841 30.2083 118.472 29.6992 118.241 29.112C118.01 28.5249 117.895 27.8926 117.895 27.2131C117.895 26.3529 118.097 25.5605 118.499 24.8338C118.901 24.107 119.479 23.4788 120.227 22.9492C120.976 22.4195 121.881 22.0049 122.941 21.7092C124.001 21.4136 125.184 21.2658 126.49 21.2658C127.17 21.2658 127.884 21.3069 128.628 21.3869C129.373 21.469 130.103 21.5758 130.824 21.7092C131.544 21.8427 132.235 21.9987 132.897 22.1752C133.559 22.3518 134.144 22.5407 134.654 22.7419L133.315 26.0388C132.231 25.6365 131.148 25.3203 130.07 25.0863C128.989 24.8522 127.88 24.7352 126.737 24.7352C125.941 24.7352 125.267 24.7948 124.714 24.9138C124.162 25.0329 123.714 25.191 123.368 25.386C123.021 25.581 122.77 25.8068 122.613 26.0594C122.454 26.3119 122.376 26.5787 122.376 26.8538C122.376 27.055 122.417 27.2357 122.498 27.3979C122.58 27.56 122.714 27.7017 122.9 27.8208C123.087 27.9398 123.331 28.0302 123.634 28.0938C123.937 28.1554 124.308 28.1862 124.749 28.1862C125.151 28.1862 125.578 28.1615 126.03 28.1143C126.482 28.0671 126.952 28.0158 127.44 27.9645C127.929 27.9131 128.436 27.8618 128.958 27.8146C129.482 27.7674 130.016 27.7427 130.562 27.7427C131.579 27.7427 132.47 27.8618 133.233 28.102C133.996 28.3401 134.627 28.6748 135.126 29.1059C135.625 29.5349 135.998 30.042 136.248 30.625C136.497 31.2081 136.623 31.8424 136.623 32.5301C136.623 33.419 136.417 34.2443 136.004 35.01C135.592 35.7737 134.977 36.4368 134.163 36.9952C133.346 37.5536 132.332 37.9909 131.119 38.307C129.905 38.6232 128.502 38.7792 126.908 38.7792C125.929 38.7792 124.984 38.7197 124.073 38.6006C123.162 38.4815 122.293 38.3193 121.469 38.1141C120.644 37.9088 119.868 37.6686 119.145 37.3894C118.421 37.1122 117.761 36.8166 117.165 36.5005L119.009 33.2897L119.004 33.2918Z" fill="white"></path><path id="Vector_4" d="M143.015 24.7516H138.912V21.5696H143.015V16.3101H147.276V21.5696H151.377V24.7516H147.276V38.4795H143.015V24.7516Z" fill="white"></path><path id="Vector_5" d="M155.163 21.5696H159.423V24.0064C160.364 23.3084 161.358 22.7069 162.403 22.1998C163.449 21.6928 164.49 21.3068 165.527 21.0399L166.779 24.9241C165.138 25.0862 163.696 25.4517 162.453 26.0203C161.209 26.589 160.201 27.3896 159.423 28.4202V38.4794H155.163V21.5696Z" fill="white"></path><path id="Vector_6" d="M169.14 29.9681C169.14 28.8226 169.375 27.7263 169.845 26.6793C170.315 25.6323 170.992 24.7085 171.874 23.9058C172.757 23.1031 173.84 22.4626 175.12 21.9864C176.401 21.508 177.857 21.2699 179.49 21.2699C181.123 21.2699 182.573 21.5121 183.874 21.9946C185.175 22.477 186.278 23.138 187.185 23.9797C188.093 24.8214 188.788 25.8089 189.272 26.9462C189.757 28.0835 190 29.3009 190 30.6004C190 30.7626 189.998 30.9371 189.994 31.1239C189.99 31.3107 189.977 31.479 189.959 31.633H173.895C174.077 32.1401 174.372 32.602 174.78 33.0228C175.188 33.4437 175.7 33.807 176.312 34.1129C176.927 34.4188 177.636 34.6549 178.442 34.8232C179.248 34.9895 180.141 35.0737 181.119 35.0737C182.096 35.0737 183.072 34.971 184.041 34.7657C185.01 34.5604 185.936 34.2997 186.818 33.9856L188.258 37.2251C187.701 37.4838 187.138 37.7096 186.567 37.9067C185.996 38.1017 185.402 38.266 184.781 38.3932C184.162 38.5226 183.515 38.6191 182.839 38.6868C182.162 38.7525 181.449 38.7874 180.7 38.7874C178.791 38.7874 177.116 38.5575 175.677 38.0997C174.238 37.6419 173.033 37.0157 172.064 36.2233C171.095 35.4309 170.365 34.4989 169.876 33.4293C169.388 32.3597 169.142 31.208 169.142 29.9763L169.14 29.9681ZM185.478 28.3196C185.325 27.8515 185.086 27.4143 184.765 27.0078C184.443 26.6013 184.043 26.2482 183.562 25.9464C183.082 25.6447 182.525 25.4086 181.892 25.2361C181.259 25.0637 180.562 24.9775 179.805 24.9775C178.999 24.9775 178.265 25.0678 177.603 25.2505C176.941 25.4311 176.359 25.6754 175.86 25.9813C175.361 26.2872 174.947 26.6403 174.615 27.0427C174.283 27.443 174.042 27.87 173.887 28.3175H185.474L185.478 28.3196Z" fill="white"></path></g><g id="Group_3"><path id="Vector_7" d="M203.055 32.5609C203.055 31.596 203.237 30.7256 203.602 29.9496C203.967 29.1736 204.47 28.5085 205.111 27.9583C205.755 27.4081 206.518 26.9832 207.4 26.6855C208.283 26.3878 209.239 26.2379 210.271 26.2379C210.71 26.2379 211.145 26.2646 211.576 26.3201C212.005 26.3755 212.417 26.4494 212.813 26.5459C213.209 26.6424 213.58 26.7573 213.927 26.8887C214.273 27.0222 214.58 27.1679 214.848 27.3239V21.5347H217.9V38.5636H214.848V37.4243C214.58 37.609 214.265 37.7835 213.9 37.9478C213.535 38.112 213.143 38.2557 212.724 38.3789C212.306 38.502 211.871 38.5985 211.421 38.6724C210.972 38.7443 210.526 38.7792 210.085 38.7792C209.054 38.7792 208.107 38.6293 207.245 38.3275C206.383 38.0258 205.641 37.6029 205.025 37.0547C204.406 36.5066 203.923 35.8517 203.577 35.0901C203.231 34.3264 203.057 33.4847 203.057 32.5589L203.055 32.5609ZM206.262 32.5609C206.262 33.0475 206.359 33.5053 206.555 33.9364C206.751 34.3675 207.033 34.7452 207.4 35.0696C207.767 35.3939 208.21 35.6505 208.73 35.8394C209.25 36.0283 209.831 36.1227 210.477 36.1227C210.889 36.1227 211.302 36.0837 211.714 36.0036C212.126 35.9256 212.524 35.8148 212.904 35.6711C213.285 35.5274 213.642 35.3529 213.976 35.1476C214.31 34.9423 214.601 34.7124 214.848 34.4599V30.2617C214.539 30.0153 214.213 29.8059 213.869 29.6355C213.524 29.4651 213.174 29.3235 212.817 29.2147C212.46 29.1059 212.1 29.0258 211.735 28.9724C211.37 28.9211 211.017 28.8965 210.673 28.8965C209.972 28.8965 209.349 28.9909 208.802 29.1777C208.256 29.3666 207.796 29.6253 207.421 29.9537C207.045 30.2822 206.759 30.6681 206.561 31.1136C206.361 31.5591 206.262 32.0415 206.262 32.5609Z" fill="white"></path><path id="Vector_8" d="M220.901 32.5096C220.901 31.6412 221.078 30.8262 221.433 30.0666C221.787 29.307 222.293 28.644 222.948 28.0753C223.604 27.5066 224.398 27.0591 225.33 26.7306C226.262 26.4022 227.308 26.2379 228.468 26.2379C229.629 26.2379 230.677 26.4022 231.607 26.7306C232.539 27.0591 233.333 27.5066 233.989 28.0753C234.644 28.644 235.15 29.307 235.504 30.0666C235.859 30.8262 236.034 31.6412 236.034 32.5096C236.034 33.378 235.857 34.193 235.504 34.9526C235.15 35.7121 234.644 36.3752 233.989 36.9439C233.333 37.5125 232.539 37.9601 231.607 38.2885C230.675 38.617 229.629 38.7812 228.468 38.7812C227.308 38.7812 226.26 38.617 225.33 38.2885C224.398 37.9601 223.604 37.5125 222.948 36.9439C222.293 36.3752 221.787 35.7121 221.433 34.9526C221.078 34.193 220.901 33.378 220.901 32.5096ZM224.107 32.5096C224.107 32.9961 224.204 33.456 224.4 33.8891C224.596 34.3244 224.88 34.7062 225.256 35.0388C225.631 35.3713 226.087 35.6341 226.627 35.8292C227.167 36.0242 227.78 36.1227 228.466 36.1227C229.153 36.1227 229.768 36.0242 230.308 35.8292C230.848 35.6341 231.304 35.3713 231.679 35.0388C232.054 34.7062 232.339 34.3244 232.535 33.8891C232.731 33.4539 232.828 32.9941 232.828 32.5096C232.828 32.0251 232.731 31.5611 232.535 31.1239C232.339 30.6866 232.054 30.3007 231.679 29.9701C231.304 29.6376 230.848 29.3748 230.308 29.1798C229.768 28.9847 229.155 28.8883 228.466 28.8883C227.778 28.8883 227.165 28.9847 226.627 29.1798C226.087 29.3748 225.631 29.6376 225.256 29.9701C224.88 30.3027 224.596 30.6866 224.4 31.1239C224.204 31.5611 224.107 32.023 224.107 32.5096Z" fill="white"></path></g><g id="Group_4"><path id="Vector_9" d="M62.3484 45.3998H69.1822C70.1782 45.3998 71.0402 45.5066 71.7701 45.7221C72.5001 45.9377 73.1064 46.2456 73.5868 46.6521C74.0673 47.0565 74.4261 47.5513 74.6612 48.1343C74.8963 48.7173 75.0138 49.3763 75.0138 50.1071C75.0138 50.7949 74.8983 51.4313 74.6653 52.0143C74.4323 52.5973 74.0776 53.1023 73.5992 53.5293C73.1208 53.9563 72.5166 54.2889 71.7866 54.5291C71.0566 54.7693 70.1947 54.8884 69.1987 54.8884L64.9776 54.8802V58.3065H62.3484V45.3998ZM69.2503 52.6178C69.7472 52.6178 70.1844 52.5583 70.5576 52.4413C70.9309 52.3243 71.2422 52.1559 71.4959 51.9383C71.7474 51.7207 71.9351 51.4559 72.0609 51.1459C72.1846 50.8339 72.2465 50.489 72.2465 50.1092C72.2465 49.3435 71.997 48.7481 71.4959 48.3211C70.9948 47.8941 70.2483 47.6806 69.2523 47.6806H64.9797V52.6178H69.2523H69.2503Z" fill="white"></path><path id="Vector_10" d="M77.8822 45.3998H80.5113V56.0113H88.0503V58.3065H77.8822V45.3998Z" fill="white"></path><path id="Vector_11" d="M95.0202 45.3998H97.8061L104.077 58.3065H101.316L100.279 56.1345H92.7065L91.7023 58.3065H88.9329L95.0202 45.3998ZM99.2413 53.9789L96.4369 48.1158L93.7087 53.9789H99.2413Z" fill="white"></path><path id="Vector_12" d="M106.075 45.3998H108.704L116.784 49.6103V45.3998H119.413V58.3065H116.784V52.3859L108.704 48.2V58.3065H106.075V45.3998Z" fill="white"></path><path id="Vector_13" d="M123.079 45.3998H134.12V47.695H125.708V50.2714H133.157V52.4269H125.708V56.0195H134.293V58.3065H123.079V45.3998Z" fill="white"></path><path id="Vector_14" d="M134.718 60.4456C135.099 60.2136 135.427 59.9714 135.701 59.7189C135.975 59.4664 136.2 59.1872 136.378 58.8813C136.555 58.5754 136.685 58.2346 136.767 57.8569C136.85 57.4791 136.891 57.0521 136.891 56.5718V45.3998H139.52V56.1016C139.52 56.6744 139.495 57.1958 139.446 57.666C139.396 58.1361 139.314 58.5692 139.201 58.9634C139.087 59.3576 138.935 59.7189 138.745 60.0494C138.555 60.3799 138.318 60.694 138.04 60.9917C137.761 61.2893 137.431 61.5747 137.052 61.8498C136.672 62.1249 136.235 62.4041 135.736 62.6833L134.715 60.4456H134.718Z" fill="white"></path><path id="Vector_15" d="M147.3 45.3998H150.088L156.359 58.3065H153.598L152.561 56.1345H144.989L143.985 58.3065H141.215L147.302 45.3998H147.3ZM151.522 53.9789L148.717 48.1158L145.989 53.9789H151.522Z" fill="white"></path><path id="Vector_16" d="M158.38 45.3998H161.009L165.721 50.1071L170.433 45.3998H173.062V58.3065H170.433V49.0253L165.721 53.5417L161.009 49.0253V58.3065H158.38V45.3998Z" fill="white"></path><path id="Vector_17" d="M176.753 45.3998H187.794V47.695H179.382V50.2714H186.831V52.4269H179.382V56.0195H187.967V58.3065H176.753V45.3998Z" fill="white"></path><path id="Vector_18" d="M190.87 45.3998H193.5L201.579 49.6103V45.3998H204.208V58.3065H201.579V52.3859L193.5 48.2V58.3065H190.87V45.3998Z" fill="white"></path><path id="Vector_19" d="M211.78 47.695H206.994V45.3998H219.195V47.695H214.409V58.3065H211.78V47.695Z" fill="white"></path><path id="Vector_20" d="M221.237 51.8152C221.237 50.84 221.416 49.9491 221.775 49.1402C222.134 48.3314 222.639 47.6354 223.289 47.0545C223.938 46.4735 224.718 46.0239 225.627 45.7036C226.536 45.3854 227.545 45.2253 228.65 45.2253C229.755 45.2253 230.757 45.3854 231.669 45.7036C232.58 46.0239 233.362 46.4735 234.011 47.0545C234.661 47.6354 235.166 48.3293 235.525 49.1402C235.884 49.9491 236.063 50.8421 236.063 51.8152C236.063 52.7882 235.884 53.6936 235.525 54.5106C235.166 55.3277 234.661 56.0318 234.011 56.621C233.362 57.2102 232.58 57.668 231.669 57.9965C230.757 58.3249 229.749 58.4871 228.65 58.4871C227.551 58.4871 226.536 58.3229 225.627 57.9965C224.718 57.6701 223.938 57.2102 223.289 56.621C222.639 56.0318 222.134 55.3277 221.775 54.5106C221.416 53.6936 221.237 52.7944 221.237 51.8152ZM223.866 51.8152C223.866 52.4803 223.985 53.0818 224.227 53.6156C224.468 54.1493 224.802 54.6051 225.231 54.9828C225.66 55.3605 226.165 55.65 226.749 55.8532C227.332 56.0565 227.967 56.1591 228.652 56.1591C229.337 56.1591 229.972 56.0565 230.555 55.8532C231.139 55.65 231.644 55.3585 232.069 54.9828C232.494 54.6051 232.83 54.1493 233.073 53.6156C233.316 53.0818 233.438 52.4824 233.438 51.8152C233.438 51.148 233.316 50.5526 233.073 50.023C232.83 49.4954 232.496 49.0478 232.069 48.6804C231.642 48.3149 231.139 48.0357 230.555 47.8428C229.972 47.6498 229.337 47.5533 228.652 47.5533C227.967 47.5533 227.332 47.6498 226.749 47.8428C226.165 48.0357 225.66 48.3149 225.231 48.6804C224.802 49.0458 224.468 49.4933 224.227 50.023C223.985 50.5506 223.866 51.148 223.866 51.8152Z" fill="white"></path></g></g><g id="Group_5"><path id="Vector_21" d="M40.649 46.0075C39.5994 44.4452 34.6504 35.2954 34.6504 35.2954L39.952 36.482C40.3335 29.6602 37.294 17.6978 37.294 17.6978L35.2876 18.9809C34.7391 18.3219 33.2296 17.1395 33.2296 17.1395C33.6709 16.813 35.2072 15.7578 35.2072 15.7578L35.7289 16.1787L50.3821 15.0681C46.1919 6.38835 37.2796 0.395905 26.9609 0.395905C12.6149 0.395905 0.986755 11.9723 0.986755 26.2544C0.986755 32.0641 2.91069 37.4284 6.16261 41.7456L6.16673 41.7415C5.49449 42.5812 4.70471 43.5851 3.90668 44.6423C19.7807 49.3866 45.1691 59.6758 45.1691 59.6758C41.4017 53.5417 35.3433 45.9685 35.3433 45.9685C38.6591 46.3298 40.649 46.0054 40.649 46.0054V46.0075ZM29.6271 16.7597C30.0561 16.9198 30.4747 17.1046 30.8768 17.3139H30.8788C32.013 17.9011 33.0399 18.6771 33.9019 19.5968C33.9019 19.5968 25.4349 24.3411 23.9605 25.1971C22.4882 26.0532 21.4138 28.0733 21.4138 28.0733L25.5215 25.8048L32.2481 22.0931L35.4051 20.3461L36.3454 19.8267C36.7372 20.8265 37.0424 21.8242 37.2775 22.7726C37.2775 22.7726 36.9414 22.475 36.1166 21.9494V21.9535C36.1681 22.1157 38.1828 27.0509 38.7045 34.93L36.5145 34.4209L36.4527 34.4065L36.3929 34.3942L36.3228 34.3777L34.7432 34.0103C34.9226 32.6081 35.0649 31.5406 35.0649 31.5406C35.5577 31.3928 35.9578 31.1978 36.2712 31.0048C36.3331 30.9679 36.3929 30.9289 36.4485 30.8898C36.9847 30.5224 37.2156 30.1836 37.2156 30.1836C35.6588 29.9209 31.9119 28.3073 30.52 27.8618C27.9012 27.0201 25.6844 28.2888 25.6844 28.2888C27.6001 32.7908 32.0666 32.3762 32.0666 32.3762C32.114 32.5301 32.6729 33.7578 33.4503 35.2667C33.4874 35.3385 33.5245 35.4124 33.5657 35.4904C35.467 39.1487 38.4941 44.8476 38.4941 44.8476C26.6784 44.4658 21.4138 38.1017 21.4138 38.1017L21.5664 37.2724C22.8408 31.5858 19.6446 31.3374 19.6425 31.3374C20.2405 32.3023 20.125 33.6408 20.125 33.6408C19.9683 33.3492 19.791 33.0988 19.5971 32.8832C18.2403 31.3867 16.1101 31.6884 15.3265 31.865L15.1966 31.6022C14.6378 30.4341 14.2872 29.149 14.1903 27.7879C14.0687 26.1045 14.3491 24.4827 14.9512 23.0087C16.504 19.1965 20.2096 16.3758 24.7132 16.0555C26.4453 15.9323 28.1156 16.191 29.6313 16.7617L29.6271 16.7597ZM32.8254 30.3705C33.209 30.5265 33.4874 30.6373 33.4874 30.6373C33.4874 30.6373 30.252 32.1257 29.2951 29.2044C29.2951 29.2044 30.1633 29.2188 31.2232 29.6889C31.0335 29.7669 30.7778 29.8429 30.4355 29.8798C30.4355 29.8798 31.0252 30.9042 32.8275 30.3684L32.8254 30.3705ZM16.8875 33.3862C19.8013 33.9754 19.5889 36.9993 18.7826 38.5472C19.2115 39.7051 20.3828 41.9263 20.3828 41.9263C20.3828 41.9263 16.2895 40.7561 15.4214 37.9724C17.834 35.6095 16.8875 33.3841 16.8875 33.3841V33.3862ZM12.7819 25.852C12.452 24.2117 13.1015 16.6693 20.4467 13.9184C21.1602 13.6516 21.8613 13.4483 22.55 13.2985C22.55 13.2985 21.088 13.9985 20.5931 15.7065C19.8528 16.0309 19.1064 16.4374 18.3619 16.9321C13.2088 20.3707 12.7819 25.85 12.7819 25.85V25.852ZM2.7416 26.047C2.7416 25.8397 2.74366 25.6303 2.74984 25.4229C3.06122 13.2923 12.3406 3.38289 24.2348 2.02797C18.0856 3.55944 14.1697 5.80122 9.93005 11.5945C1.42804 23.2202 7.76897 34.8848 9.4702 37.5536C9.17945 37.8739 8.98767 38.0833 8.98767 38.0833L7.27613 40.1054C4.42426 36.1432 2.74572 31.2881 2.74572 26.0429L2.7416 26.047ZM41.214 56.2248C31.0727 50.84 14.3409 44.3652 14.3409 44.3652C14.7945 45.2069 15.0152 45.9254 15.0152 45.9254C10.46 44.1968 6.96063 42.9528 6.96063 42.9528C8.45771 41.0169 9.66816 39.666 9.66816 39.666C9.88468 40.1813 10.194 40.6453 10.5095 41.0312C11.1343 41.797 11.7818 42.263 11.7818 42.263C11.3632 40.5611 11.4044 39.2945 11.7261 38.2619C11.7447 38.2003 11.7632 38.1387 11.788 38.0812C11.9035 37.7527 12.0478 37.4489 12.2128 37.1635C12.718 36.289 13.4315 35.5746 14.1738 34.8253L14.0955 36.9069L13.4542 36.6236C13.8356 39.5121 14.8543 40.7972 17.5371 42.2055H17.5392C18.7001 42.8152 20.1704 43.4516 22.0366 44.2461C22.4304 44.4144 22.8099 44.5746 23.179 44.7265C23.3275 44.7881 23.4739 44.8476 23.6141 44.9051C25.7731 45.7858 27.5238 46.4222 28.8683 46.8718C30.883 47.5451 31.9924 47.8038 32.2109 47.851C32.2192 47.851 32.2295 47.8531 32.2398 47.8572C32.246 47.8572 32.2501 47.8572 32.2501 47.8572C30.6685 46.1081 29.4828 44.5335 29.4828 44.5335C29.9756 44.7532 32.5677 45.4737 32.5677 45.4737C34.1452 46.9539 41.214 56.2228 41.214 56.2228V56.2248Z" fill="white"></path><path id="Vector_22" d="M29.7962 36.1371C29.7962 36.1371 31.7305 40.3969 32.4584 41.3289C33.1884 42.2609 34.8381 42.5791 34.8381 42.5791C34.2215 41.7272 31.0397 34.9916 31.0397 34.9916C27.0289 34.4414 25.3751 31.0808 25.3751 31.0808C25.6762 35.2543 29.7962 36.1371 29.7962 36.1371Z" fill="white"></path><path id="Vector_23" d="M34.5184 28.0568C34.5184 28.0568 34.3267 25.852 32.2398 24.4457L32.0027 25.2464C31.9119 25.2156 29.5014 24.4457 27.796 25.9875C27.796 25.9875 31.2789 25.4045 34.5164 28.0568H34.5184Z" fill="white"></path></g></g></svg>