<svg xmlns="http://www.w3.org/2000/svg" width="41" height="41" viewBox="0 0 41 41" fill="none"><g id="icone selo"><path id="Vector" d="M39.7555 17.3914C39.3551 16.7628 38.9732 16.1694 38.8186 15.5912C38.6545 14.977 38.6857 14.2507 38.7185 13.482C38.7658 12.3673 38.8154 11.2149 38.2557 10.2476C37.6871 9.26504 36.6541 8.72611 35.6579 8.21281C34.9829 7.86207 34.3446 7.53135 33.9066 7.09172C33.4686 6.65209 33.1379 6.01547 32.7855 5.34041C32.2714 4.34424 31.7349 3.31283 30.7499 2.74428C29.7834 2.18373 28.6303 2.23418 27.5156 2.28143C26.7468 2.31426 26.0205 2.34549 25.4063 2.18133C24.8282 2.02678 24.2348 1.64641 23.6062 1.24441C22.6524 0.632617 21.6643 0 20.4999 0C19.3356 0 18.3474 0.632617 17.3913 1.24441C16.7627 1.6448 16.1693 2.02678 15.5911 2.18133C14.9745 2.34549 14.2538 2.31426 13.4819 2.28143C12.3672 2.23418 11.2149 2.18453 10.2475 2.74428C9.26498 3.31283 8.72605 4.34584 8.21275 5.34201C7.86201 6.01707 7.53129 6.65529 7.09166 7.09332C6.65203 7.53135 6.01541 7.86207 5.34035 8.21441C4.34418 8.72852 3.31277 9.26504 2.74422 10.25C2.18367 11.2165 2.23412 12.3697 2.28136 13.4844C2.3142 14.2531 2.34543 14.9794 2.18127 15.5936C2.02672 16.1718 1.64635 16.7652 1.24435 17.3938C0.632556 18.3475 -6.10352e-05 19.3357 -6.10352e-05 20.5C-6.10352e-05 21.6643 0.632556 22.6525 1.24435 23.6086C1.64474 24.2372 2.02672 24.8306 2.18127 25.4088C2.34543 26.0254 2.3142 26.7461 2.28136 27.518C2.23412 28.6327 2.18447 29.7891 2.74422 30.75C3.31277 31.7326 4.34578 32.2715 5.34195 32.7848C6.01701 33.1355 6.65523 33.4663 7.09326 33.9059C7.53129 34.3455 7.86201 34.9821 8.21435 35.6572C8.72845 36.6558 9.26498 37.6872 10.2499 38.2557C11.2165 38.8163 12.3696 38.7658 13.4843 38.7186C14.253 38.6857 14.9794 38.6545 15.5936 38.8187C16.1717 38.9732 16.7651 39.3536 17.3937 39.7556C18.3474 40.3674 19.3356 41 20.4999 41C21.6643 41 22.6524 40.3674 23.6086 39.7556C24.2372 39.3552 24.8306 38.9732 25.4087 38.8187C26.0229 38.6545 26.7492 38.6857 27.518 38.7186C28.6327 38.7658 29.785 38.8155 30.7523 38.2557C31.7349 37.6872 32.2738 36.6542 32.7871 35.658C33.1379 34.9829 33.4686 34.3447 33.9082 33.9067C34.3479 33.4687 34.9845 33.1379 35.6595 32.7856C36.6557 32.2715 37.6871 31.735 38.2557 30.75C38.8162 29.7835 38.7658 28.6303 38.7185 27.5156C38.6857 26.7469 38.6545 26.0206 38.8186 25.4064C38.9732 24.8282 39.3535 24.2348 39.7555 23.6062C40.3673 22.6525 40.9999 21.6643 40.9999 20.5C40.9999 19.3357 40.3673 18.3475 39.7555 17.3914ZM38.7433 22.9616C38.3093 23.6391 37.8625 24.3405 37.6583 25.0989C37.4469 25.8909 37.4829 26.7445 37.5181 27.5693C37.5606 28.5559 37.5982 29.4912 37.2162 30.151C36.8231 30.8301 35.9887 31.2633 35.1054 31.7213C34.3783 32.0985 33.6271 32.4885 33.0578 33.0579C32.4884 33.6272 32.0969 34.3783 31.7213 35.1054C31.2632 35.9863 30.83 36.8231 30.151 37.2163C29.4871 37.6007 28.5558 37.5606 27.5692 37.5182C26.7444 37.483 25.8876 37.4469 25.0988 37.6583C24.3405 37.8609 23.639 38.3094 22.9615 38.7434C22.1135 39.2863 21.3127 39.7988 20.4999 39.7988C19.6871 39.7988 18.8864 39.2863 18.0383 38.7434C17.3609 38.3094 16.6594 37.8625 15.9011 37.6583C15.4033 37.5367 14.8918 37.4807 14.3796 37.4918C14.0593 37.4918 13.7437 37.5046 13.4298 37.5182C12.4433 37.5606 11.512 37.5983 10.8481 37.2163C10.1691 36.8231 9.73584 35.9887 9.27779 35.1054C8.90062 34.3783 8.51064 33.6272 7.94129 33.0579C7.37193 32.4885 6.6208 32.0969 5.89369 31.7213C5.01283 31.2633 4.17601 30.8301 3.78283 30.151C3.39926 29.4872 3.43849 28.5559 3.48094 27.5693C3.51617 26.7437 3.5522 25.8877 3.3408 25.0989C3.139 24.3438 2.69056 23.6391 2.25654 22.9616C1.71361 22.1136 1.20111 21.3128 1.20111 20.5C1.20111 19.6872 1.71361 18.8864 2.25654 18.0384C2.69056 17.3609 3.1374 16.6595 3.3416 15.9011C3.55301 15.1091 3.51697 14.2555 3.48174 13.4307C3.43929 12.4441 3.40166 11.5128 3.78363 10.849C4.17681 10.1699 5.01123 9.7367 5.89449 9.27865C6.6216 8.90148 7.37273 8.5115 7.94209 7.94215C8.51144 7.37279 8.90302 6.62166 9.27859 5.89455C9.73664 5.01369 10.1699 4.17688 10.8489 3.78369C11.5128 3.40012 12.4441 3.43936 13.4306 3.4818C14.2554 3.51703 15.1123 3.55307 15.9011 3.34166C16.6562 3.13906 17.3609 2.69062 18.0383 2.2566C18.8864 1.71367 19.6871 1.20117 20.4999 1.20117C21.3127 1.20117 22.1135 1.71367 22.9615 2.2566C23.639 2.69062 24.3405 3.13746 25.0988 3.34166C25.8908 3.55307 26.7444 3.51703 27.5692 3.4818C28.5558 3.43936 29.4911 3.40172 30.151 3.78369C30.83 4.17688 31.2632 5.01129 31.7213 5.89455C32.0985 6.62166 32.4884 7.37279 33.0578 7.94215C33.6271 8.5115 34.3783 8.90309 35.1054 9.27865C35.9862 9.7367 36.8231 10.1699 37.2162 10.849C37.5998 11.5128 37.5606 12.4441 37.5181 13.4307C37.4829 14.2563 37.4469 15.1123 37.6583 15.9011C37.8609 16.6595 38.3093 17.3609 38.7433 18.0384C39.2863 18.8864 39.7988 19.6872 39.7988 20.5C39.7988 21.3128 39.2863 22.1136 38.7433 22.9616Z" fill="white"></path><path id="Vector_2" d="M20.4999 5.48535C12.2207 5.48535 5.48529 12.2207 5.48529 20.5C5.48529 28.7793 12.2207 35.5146 20.4999 35.5146C28.7792 35.5146 35.5146 28.7793 35.5146 20.5C35.5146 12.2207 28.7792 5.48535 20.4999 5.48535ZM20.4999 34.3135C12.8829 34.3135 6.68646 28.117 6.68646 20.5C6.68646 12.883 12.8829 6.68652 20.4999 6.68652C28.117 6.68652 34.3134 12.883 34.3134 20.5C34.3134 28.117 28.117 34.3135 20.4999 34.3135Z" fill="white"></path><path id="Vector_3" d="M28.8993 14.8393C28.8124 14.7644 28.706 14.716 28.5925 14.6997C28.479 14.6834 28.3631 14.6998 28.2587 14.7472L23.7255 16.7795L21.014 12.1871C20.961 12.0971 20.8853 12.0225 20.7946 11.9707C20.7039 11.9189 20.6012 11.8916 20.4967 11.8916C20.3922 11.8916 20.2896 11.9189 20.1989 11.9707C20.1081 12.0225 20.0325 12.0971 19.9794 12.1871L17.268 16.7795L12.7348 14.7472C12.6307 14.7004 12.5155 14.6842 12.4025 14.7006C12.2896 14.7169 12.1837 14.7651 12.0972 14.8395C12.0107 14.9138 11.9471 15.0113 11.9139 15.1204C11.8808 15.2296 11.8794 15.3459 11.9099 15.4559L13.9119 22.6629C13.9475 22.7898 14.0237 22.9015 14.1288 22.9809C14.234 23.0603 14.3623 23.103 14.4941 23.1025H26.5058C26.637 23.1023 26.7646 23.0593 26.8691 22.9799C26.9736 22.9006 27.0493 22.7892 27.0848 22.6629L29.0867 15.4559C29.1169 15.3459 29.1153 15.2296 29.0822 15.1205C29.049 15.0113 28.9856 14.9138 28.8993 14.8393ZM26.0493 21.9013H14.9505L13.413 16.3655L17.2696 18.0976C17.4041 18.1583 17.5562 18.1674 17.697 18.1231C17.8377 18.0788 17.9572 17.9842 18.0327 17.8574L20.4999 13.6733L22.9671 17.8526C23.0426 17.9794 23.1621 18.074 23.3029 18.1183C23.4436 18.1626 23.5958 18.1535 23.7303 18.0928L27.5868 16.3631L26.0493 21.9013Z" fill="white"></path><path id="Vector_4" d="M26.5058 24.9043H14.4941C14.3348 24.9043 14.182 24.9676 14.0694 25.0802C13.9568 25.1928 13.8935 25.3456 13.8935 25.5049V27.5068C13.8935 27.9316 14.0622 28.339 14.3626 28.6393C14.6629 28.9397 15.0703 29.1084 15.4951 29.1084H25.5048C25.9296 29.1084 26.3369 28.9397 26.6373 28.6393C26.9376 28.339 27.1064 27.9316 27.1064 27.5068V25.5049C27.1064 25.3456 27.0431 25.1928 26.9305 25.0802C26.8178 24.9676 26.6651 24.9043 26.5058 24.9043ZM25.9052 27.5068C25.9052 27.613 25.863 27.7149 25.7879 27.79C25.7129 27.865 25.611 27.9072 25.5048 27.9072H15.4951C15.3889 27.9072 15.287 27.865 15.2119 27.79C15.1368 27.7149 15.0947 27.613 15.0947 27.5068V26.1055H25.9052V27.5068Z" fill="white"></path></g></svg>