<svg xmlns="http://www.w3.org/2000/svg" width="49" height="33" viewBox="0 0 49 33" fill="none"><g id="icone jornada"><path id="Vector" d="M42.9331 20.9944C43.8991 20.9944 44.8336 20.6499 45.5647 20.0238C46.4705 19.252 46.9913 18.1264 46.9913 16.9364C46.9913 14.6986 45.1709 12.8782 42.9331 12.8782C40.6954 12.8782 38.8749 14.6986 38.8749 16.9364C38.8749 18.126 39.3957 19.252 40.3035 20.025C41.0326 20.6498 41.9671 20.9944 42.9331 20.9944ZM42.9331 14.4879C44.2832 14.4879 45.3816 15.5863 45.3816 16.9364C45.3816 17.6536 45.0671 18.3328 44.5193 18.7996C43.6367 19.5549 42.2273 19.5541 41.3493 18.8011C40.7991 18.3326 40.4847 17.6535 40.4847 16.9362C40.4847 15.5863 41.5832 14.4879 42.9331 14.4879Z" fill="white"></path><path id="Vector_2" d="M37.5738 25.9173H39.1835V22.8447C39.1835 21.7776 39.7844 20.8133 40.7139 20.3339C42.0242 21.1922 43.8423 21.1922 45.1526 20.3339C46.0825 20.813 46.6833 21.7773 46.6833 22.8447V25.9173H48.2929V22.8447C48.2929 20.9539 47.0915 19.2692 45.3037 18.6521C45.0337 18.559 44.7354 18.616 44.5177 18.8015C43.6382 19.5546 42.2273 19.5549 41.3493 18.802C41.1323 18.616 40.8321 18.559 40.5629 18.6521C38.7747 19.2695 37.5738 20.9544 37.5738 22.8447V25.9173Z" fill="white"></path><path id="Vector_3" d="M36.2198 8.04879C37.8201 8.04879 39.2633 7.10318 39.8964 5.63963C40.1204 5.16337 40.2441 4.597 40.2441 4.02432C40.2441 1.80545 38.4387 0 36.2198 0C34.0009 0 32.1955 1.80545 32.1955 4.02432C32.1955 4.72865 32.3802 5.42099 32.7292 6.02786C33.4464 7.27458 34.7842 8.04879 36.2198 8.04879ZM36.2198 1.60991C37.5513 1.60991 38.6344 2.69303 38.6344 4.02447C38.6344 4.36202 38.5633 4.69177 38.4288 4.97788C38.0409 5.87431 37.1774 6.43903 36.2197 6.43903C35.3582 6.43903 34.5553 5.97372 34.1242 5.2247C33.9155 4.86241 33.8051 4.44689 33.8051 4.02447C33.8053 2.69303 34.8884 1.60991 36.2198 1.60991Z" fill="white"></path><path id="Vector_4" d="M28.976 19.3171H30.5858V11.6708C30.5858 10.0586 31.2138 8.54289 32.3543 7.40279C32.785 6.97212 33.2704 6.61448 33.7978 6.34052L33.0558 4.91235C32.3818 5.2622 31.7627 5.71716 31.2157 6.26464C29.7714 7.70855 28.976 9.62871 28.976 11.6708V19.3171Z" fill="white"></path><path id="Vector_5" d="M42.6487 11.3147L44.256 11.2218C44.0851 8.27464 42.2006 5.66468 39.4551 4.57227L38.8601 6.06806C41.027 6.93045 42.5141 8.98977 42.6487 11.3147Z" fill="white"></path><path id="Vector_6" d="M23.3419 33.0001C25.5608 33.0001 27.3662 31.1946 27.3662 28.9757C27.3662 28.5623 27.3049 28.1583 27.1839 27.7755C26.6558 26.0872 25.1115 24.9514 23.3419 24.9514C21.3993 24.9514 19.7361 26.3359 19.3867 28.2432C19.3426 28.446 19.3176 28.701 19.3176 28.9757C19.3176 31.1945 21.123 33.0001 23.3419 33.0001ZM23.3419 26.561C24.4037 26.561 25.3309 27.2429 25.6481 28.2581C25.7203 28.4864 25.7565 28.727 25.7565 28.9757C25.7565 30.3072 24.6734 31.3903 23.3419 31.3903C22.0105 31.3903 20.9274 30.3072 20.9274 28.9757C20.9274 28.8154 20.9403 28.6746 20.9654 28.5584C21.1796 27.3903 22.1766 26.561 23.3419 26.561Z" fill="white"></path><path id="Vector_7" d="M26.8204 28.714C27.3764 28.3913 27.8897 27.9964 28.3456 27.5405C29.7902 26.0966 30.5857 24.1764 30.5857 22.1344V14.488H28.976V22.1344C28.976 23.7465 28.348 25.2622 27.2074 26.4023C26.8498 26.7595 26.4478 27.0689 26.0123 27.322L26.8204 28.714Z" fill="white"></path><path id="Vector_8" d="M19.8535 29.1247L20.5036 27.6517C18.316 26.6861 16.9029 24.5206 16.9029 22.1342V12.8782H15.2931V22.1342C15.2931 25.1576 17.0833 27.9016 19.8535 29.1247Z" fill="white"></path><path id="Vector_9" d="M10.464 10.4634C12.2726 10.4634 13.8663 9.24941 14.3394 7.51159C14.4369 7.18184 14.4883 6.81565 14.4883 6.43912C14.4883 4.22024 12.6829 2.41479 10.464 2.41479C8.24512 2.41479 6.43967 4.22024 6.43967 6.43912C6.43967 6.87263 6.5139 7.3096 6.6601 7.73757C7.20594 9.36607 8.73547 10.4634 10.464 10.4634ZM10.464 4.0244C11.7954 4.0244 12.8786 5.10752 12.8786 6.43897C12.8786 6.66135 12.849 6.87488 12.7905 7.07252C12.5032 8.12775 11.5483 8.85368 10.464 8.85368C9.42811 8.85368 8.51234 8.19778 8.18499 7.22158C8.09337 6.95316 8.04943 6.69884 8.04943 6.43912C8.04928 5.10752 9.1324 4.0244 10.464 4.0244Z" fill="white"></path><path id="Vector_10" d="M4.34678 18.0293H5.95653V11.9122C5.95653 10.664 6.44194 9.49135 7.32262 8.61022C7.50376 8.42862 7.68701 8.27417 7.883 8.13711L6.96018 6.81812C6.68591 7.00991 6.43204 7.22404 6.18356 7.47252C4.99938 8.657 4.34663 10.2342 4.34663 11.9122V18.0293H4.34678Z" fill="white"></path><path id="Vector_11" d="M15.2931 19.3168H16.9029V11.9118C16.9029 9.755 15.8154 7.77696 13.9942 6.62036L13.1312 7.9794C14.4852 8.83893 15.2931 10.3091 15.2931 11.9118V19.3168Z" fill="white"></path><path id="Vector_12" d="M2.89894 29.1545C3.14457 29.1545 3.39094 29.0951 3.61887 28.9753L5.12411 28.183L6.56757 28.9753C7.09106 29.2512 7.71352 29.206 8.19232 28.8587C8.67143 28.5109 8.90686 27.9327 8.80744 27.3491L8.52012 25.6721L9.71916 24.5439C10.1428 24.1305 10.2926 23.5248 10.1098 22.9625C9.92744 22.4001 9.45074 21.9972 8.86547 21.9116L7.18028 21.6667L6.47805 20.1772C6.21428 19.6462 5.68419 19.3174 5.09307 19.3174H5.09187C4.50075 19.3178 3.97096 19.6467 3.70885 20.1765C3.70885 20.1769 3.70884 20.1769 3.70839 20.1772L2.95577 21.7033L1.32247 21.9111C0.736903 21.996 0.259447 22.3985 0.0766525 22.9616C-0.106441 23.5243 0.0432148 24.1308 0.467285 24.5437L1.68596 25.7311L1.37946 27.3486C1.27929 27.9306 1.51382 28.5096 1.99292 28.8578C2.26344 29.0548 2.58029 29.1545 2.89894 29.1545ZM8.49928 23.4848L7.37732 24.5781C7.01293 24.9341 6.84754 25.4447 6.93361 25.9446L7.19813 27.4884L5.81165 26.759C5.35894 26.5233 4.8245 26.5236 4.37644 26.7578L2.98906 27.4879L3.25388 25.9442C3.33921 25.4439 3.17336 24.9338 2.81017 24.5788L1.68731 23.4848L3.23739 23.26C3.74123 23.1857 4.17505 22.8701 4.39953 22.4157L5.11287 20.9694L5.78691 22.4153C6.01364 22.8723 6.44836 23.1876 6.95055 23.2598L8.49928 23.4848Z" fill="white"></path></g></svg>