<?xml version="1.0" encoding="UTF-8"?><svg id="Layer_1" xmlns="http://www.w3.org/2000/svg" viewBox="0 0 393.75 97.4"><defs><style>.cls-1{fill:#fff;}</style></defs><path class="cls-1" d="M78.94,14.55V52.49c0,21.95-11.78,30.37-30.53,30.37s-30.53-8.41-30.53-30.37V14.55h16.82V48.28c0,14.38,5.38,19.85,13.71,19.85s13.71-5.47,13.71-19.85V14.55h16.82Z"/><path class="cls-1" d="M157.24,14.55V82.85h-17.08l-34.75-42.43v42.43h-17.08V14.55h17.08l34.75,42.86V14.55h17.08Z"/><path class="cls-1" d="M303.35,32.8c-5.86-1.98-14.62-3.3-21.23-3.3-5.29,0-13.88,.83-13.88,4.71,0,7.27,36.34,6.28,36.34,30.72,0,12.39-9.83,17.92-24.78,17.92-9.66,0-20.32-2.31-27.83-4.46v-14.7c3.22,.91,13.71,4.79,24.36,4.79,7.27,0,11.73-1.82,11.73-4.87,0-9.08-36.92-7.43-36.92-29.32,0-12.22,11.32-19.74,28.58-19.74,8.01,0,18.83,1.49,23.62,3.39v14.87Z"/><path class="cls-1" d="M375.88,39.31c0,18.95-15.37,24.16-31.08,24.16h-13.75v19.38h-17.08V14.55h29.97c14.86,0,31.93,4.44,31.93,24.76Zm-17.25,.09c0-5.72-3.67-9.48-12.98-9.48h-14.6v18.19h14.6c9.31,0,12.98-3.67,12.98-8.71Z"/><g><path class="cls-1" d="M241.76,82.85h-.02c-6.5-1.32-13.11-2.3-19.84-2.93l-5.42-21.71c1.69-.49,3.36-1.01,5.03-1.58,2.83-.96,6.15-1.87,8.82-3.54l11.43,29.77Z"/><path class="cls-1" d="M190.16,65.18l-3.68,14.74c-6.73,.63-13.35,1.61-19.84,2.93h-.02l2.46-6.41s0,0,0,0c2.82-4.11,7.13-6.63,11.73-8.37,3.03-1.15,6.17-2.06,9.34-2.88"/><path class="cls-1" d="M172.77,61.76c-1.28-4.69,3.36-7.84,7.02-9.42,4.31-1.86,9.01-2.97,13.56-4.04,4.61-1.08,9.21-2.05,13.81-3.15,4.47-1.06,8.97-2.1,13.33-3.57,4.52-1.53,9.23-3.76,11.07-8.47,1.61,4.44-1.16,8.43-4.93,10.53-4.22,2.35-9.27,3.46-13.91,4.65-4.76,1.22-9.54,2.41-14.32,3.55-4.76,1.14-9.32,2.1-14.2,3.65-3.94,1.25-8.62,3.01-11.42,6.27"/><path class="cls-1" d="M227.01,34.79c-1.48,1.5-3.49,2.47-5.43,3.22-4.7,1.82-9.54,3.18-14.44,4.34-8.75,2.1-10.68,2-20.57,4.86-5.98,1.73-8.5,3.39-9.69,4.47-.12-2.62,1.72-4.43,3.87-5.66l12.08-31.47h9.94l-6.69,26.81c5.1-1.13,10.25-2.19,15.3-3.56l-5.8-23.25h9.94l7.4,19.28c2.3-1.14,4.34-2.67,5.48-5.05,.89,2.02,.08,4.51-1.41,6.01"/><path class="cls-1" d="M169.17,73.5c-1.01-6.38,4.8-10.84,9.9-13.19,5.91-2.72,12.38-3.95,18.68-5.46,6.71-1.6,13.43-3.26,20.07-5.13,6.29-1.77,13.99-3.95,16.85-10.46,1.33,2.99,.15,6.77-2.03,9.04-2.82,2.94-7.39,4.11-11.12,5.38-5.19,1.77-10.53,3.11-15.83,4.54-3.04,.82-6.08,1.61-9.13,2.4-5.23,1.36-10.59,2.57-15.64,4.49-4.6,1.75-8.92,4.26-11.74,8.38"/></g></svg>